<?xml version="1.0" encoding="UTF-8"?>
<svg version="1.1" xmlns="http://www.w3.org/2000/svg" width="4096" height="4096">
<path d="M0 0 C1351.68 0 2703.36 0 4096 0 C4096 1351.68 4096 2703.36 4096 4096 C2744.32 4096 1392.64 4096 0 4096 C0 2744.32 0 1392.64 0 0 Z " fill="#000000" transform="translate(0,0)"/>
<path d="M0 0 C1.07773682 0.45802002 2.15547363 0.91604004 3.26586914 1.38793945 C6.97213777 2.96895973 10.60803049 4.68593984 14.234375 6.44140625 C14.90585068 6.76531845 15.57732635 7.08923065 16.26914978 7.42295837 C18.43059268 8.46709657 20.59052158 9.51430535 22.75 10.5625 C23.4878775 10.92037598 24.225755 11.27825195 24.98599243 11.64697266 C38.93520054 18.41977522 52.76471006 25.35022641 66.1875 33.125 C71.45722891 36.17175131 76.81550925 38.96469858 82.27294922 41.65332031 C88.66400991 44.80891595 94.9906495 48.08322206 101.3125 51.375 C102.39966309 51.94009277 103.48682617 52.50518555 104.60693359 53.08740234 C109.29720946 55.52982996 113.98213734 57.97895449 118.6328125 60.49609375 C132.2278741 67.83262224 146.22012902 74.31019995 160.21749878 80.8324585 C165.39797559 83.24748258 170.56894655 85.68187506 175.734375 88.12890625 C190.39307275 95.06875578 205.0927998 101.88499972 219.91186523 108.47583008 C229.60416992 112.79489514 239.18836396 117.31585231 248.74853516 121.91845703 C258.39029735 126.55009946 268.09067169 130.96635211 278 135 C284.02540096 137.47958887 290.02551605 140.00298362 295.98291016 142.64160156 C301.23397352 144.96691396 306.44904728 147.22937013 311.875 149.125 C315.24841005 150.30420086 318.34484899 151.6373425 321.5 153.3125 C327.11471474 156.23251216 333.0075428 158.30140209 338.9609375 160.41333008 C340.12689453 160.82941528 340.12689453 160.82941528 341.31640625 161.25390625 C342.00162354 161.49439697 342.68684082 161.7348877 343.39282227 161.98266602 C345.6499364 162.86340341 347.84112967 163.81389719 350.04956055 164.80810547 C355.60297463 167.29618809 361.24093926 169.55734424 366.890625 171.81640625 C368.02141983 172.26984406 369.15221466 172.72328186 370.317276 173.19046021 C373.33942089 174.40128551 376.36226415 175.61033887 379.38571548 176.8178978 C381.25608331 177.5649297 383.12626368 178.31242946 384.99642944 179.05996704 C399.07017154 184.6836706 413.14586877 190.30112815 427.3125 195.6875 C428.39756836 196.10136963 429.48263672 196.51523926 430.60058594 196.94165039 C435.91258682 198.93860113 441.23385846 200.7100839 446.68212891 202.29541016 C450.18850453 203.36128334 453.58714534 204.66959502 457 206 C466.66365472 209.65845677 476.35333735 213.21279099 486.10546875 216.62890625 C489.28930629 217.74535662 492.45954137 218.89479748 495.625 220.0625 C501.17777944 222.10021723 506.79658291 223.9286785 512.421875 225.75390625 C516 227 516 227 519.18359375 228.4140625 C524.39026159 230.69752294 529.87522889 232.18246269 535.3125 233.8125 C543.25082194 236.22664878 551.18338115 238.64812202 559.0625 241.25 C559.74417236 241.47147705 560.42584473 241.6929541 561.12817383 241.92114258 C564.56991519 243.06924299 567.86058444 244.36940836 571.15209961 245.89770508 C575.82986915 247.99054592 580.56890511 249.57455826 585.46875 251.05859375 C586.34793091 251.32962418 587.22711182 251.6006546 588.13293457 251.87989807 C590.92037914 252.7376718 593.71014528 253.58760246 596.5 254.4375 C598.33869246 255.00276493 600.17723531 255.56851677 602.015625 256.13476562 C610.89681299 258.86435327 619.79224294 261.53804162 628.71127319 264.14111328 C633.95148066 265.67666667 639.16972219 267.27727455 644.3828125 268.90234375 C645.17334518 269.14871582 645.96387787 269.39508789 646.77836609 269.64892578 C647.57523331 269.89731201 648.37210052 270.14569824 649.19311523 270.40161133 C668.86201748 276.53681131 668.86201748 276.53681131 688.75582886 281.88641357 C694.20835937 283.24877335 699.60082339 284.74175508 704.98280334 286.35954285 C719.88243897 290.83424128 734.94261954 294.54163467 750.0625 298.1875 C755.01230873 299.38690015 759.96138664 300.58928892 764.91015625 301.79296875 C766.07862091 302.07680923 767.24708557 302.36064972 768.45095825 302.65309143 C776.66746493 304.65594571 784.83979515 306.78028094 793 309 C826.09135976 317.67454819 859.52842641 324.81477226 893.0324707 331.68237305 C906.06129591 334.35346958 919.07787925 337.05890708 932.0625 339.9375 C958.79125532 345.8564074 958.79125532 345.8564074 985.83642578 350.01269531 C990.74574435 350.61329843 995.2445541 351.5877098 1000 353 C1002.58511303 353.48400926 1005.15120504 353.92238744 1007.75 354.3125 C1008.54889648 354.43512207 1009.34779297 354.55774414 1010.17089844 354.68408203 C1013.11279354 355.13068686 1016.05617051 355.56632669 1019 356 C1020.21300781 356.17934082 1021.42601562 356.35868164 1022.67578125 356.54345703 C1040.45421065 359.1633617 1058.25268406 361.56765153 1076.08261108 363.80892944 C1091.56050049 365.75992391 1106.97525074 368.03766888 1122.38720703 370.45068359 C1127.33997279 371.20373961 1132.3021164 371.87988447 1137.26733398 372.54614258 C1140 373 1140 373 1142 374 C1143.93622894 374.28276556 1145.87986986 374.51532496 1147.82543945 374.72436523 C1149.66686272 374.92478676 1149.66686272 374.92478676 1151.54548645 375.1292572 C1152.90139272 375.27260918 1154.25732513 375.41571409 1155.61328125 375.55859375 C1157.02070555 375.70913078 1158.42810978 375.85985545 1159.835495 376.01075745 C1162.80875781 376.32857321 1165.78231948 376.6433991 1168.75610352 376.95629883 C1171.74582489 377.27113238 1174.73506171 377.59000814 1177.72387695 377.91333008 C1194.2853111 379.70482456 1210.82284319 381.33962692 1227.45368958 382.34397888 C1234.47621649 382.77532435 1241.40538274 383.47891213 1248.375 384.4375 C1282.6129805 388.81397029 1317.40009971 389.4739893 1351.86348629 390.90664864 C1354.03345928 390.9968699 1356.20339999 391.0878374 1358.37333679 391.17892456 C1361.03544513 391.29066749 1363.69761591 391.39922948 1366.35993958 391.50588989 C1371.9953721 391.74065758 1377.60875847 392.03032691 1383.22924805 392.50610352 C1391.75072363 393.18995346 1400.28015893 393.3632996 1408.82421875 393.55078125 C1409.7399082 393.57159571 1410.65559765 393.59241016 1411.59903526 393.61385536 C1436.088237 394.15862595 1460.57985635 394.19724625 1485.0741272 394.18867874 C1488.86305834 394.18748406 1492.65198674 394.18803757 1496.44091797 394.18869019 C1529.13731563 394.18748354 1561.81495877 393.95157052 1594.5 393.0625 C1595.31186893 393.04068539 1596.12373787 393.01887077 1596.96020889 392.99639511 C1602.25506321 392.85317306 1607.54948943 392.698801 1612.84375 392.53515625 C1614.11957443 392.49655487 1615.39539886 392.45795349 1616.70988464 392.41818237 C1623.25891347 392.19846444 1629.75883132 391.80361926 1636.28527832 391.22166443 C1640.08551048 390.91136511 1643.87646456 390.79361121 1647.6875 390.71875 C1649.22526127 390.68102416 1650.76302166 390.64326278 1652.30078125 390.60546875 C1654.6684301 390.5515799 1657.03610576 390.49921525 1659.40380859 390.44775391 C1661.72764407 390.39598647 1664.05130277 390.33884462 1666.375 390.28125 C1667.08229248 390.26767456 1667.78958496 390.25409912 1668.51831055 390.2401123 C1671.8351698 390.15631244 1674.8058452 389.87105546 1678 389 C1679.60816018 388.87821899 1681.21992347 388.79993105 1682.83203125 388.75390625 C1684.25854004 388.70665405 1684.25854004 388.70665405 1685.71386719 388.65844727 C1686.73641602 388.62678467 1687.75896484 388.59512207 1688.8125 388.5625 C1697.92562763 388.23252301 1706.97337906 387.64821587 1716.05200195 386.80102539 C1724.9896676 385.97302727 1733.93760089 385.35154938 1742.89550781 384.78540039 C1748.64734969 384.39960612 1754.32892836 383.85587094 1760.0390625 383.05859375 C1768.69577014 381.85485038 1777.3786231 381.08311744 1786.08291626 380.31097412 C1805.01872788 378.62583156 1823.91228023 376.79223995 1842.72265625 374.00390625 C1851.43885546 372.74713264 1860.19301021 371.98646047 1868.96484375 371.23242188 C1875.98361123 370.57825251 1882.56282004 369.502052 1889.36767578 367.66674805 C1892.8957696 366.77310826 1896.24567559 366.42929918 1899.875 366.125 C1908.0034693 365.34135131 1916.01477697 364.06258215 1924.0625 362.6875 C1934.83951505 360.84810295 1945.6247451 359.11626824 1956.4375 357.5 C1981.42945416 353.74704955 2006.32609762 349.72078161 2031.11523438 344.77490234 C2034.4052704 344.11863196 2037.69622515 343.46746342 2040.98783875 342.81918335 C2053.02606173 340.44714418 2065.05166468 338.04685799 2077.01635742 335.32543945 C2082.81241804 334.01523463 2088.63928357 332.92628004 2094.484375 331.85546875 C2100.2965753 330.77140451 2106.08534765 329.57272631 2111.875 328.375 C2112.94057129 328.15658447 2114.00614258 327.93816895 2115.10400391 327.71313477 C2116.09835449 327.50615967 2117.09270508 327.29918457 2118.1171875 327.0859375 C2119.01034668 326.9007959 2119.90350586 326.7156543 2120.82373047 326.52490234 C2123.02856683 326.07947928 2123.02856683 326.07947928 2125 325 C2126.62093277 324.72486012 2128.24713038 324.48057643 2129.875 324.25 C2136.60322212 323.17867875 2143.12671316 321.51181133 2149.71777344 319.81738281 C2154.00667244 318.72292951 2158.25092504 317.70309706 2162.625 317 C2167.81014674 316.13053942 2172.79398434 314.68948305 2177.83813477 313.23828125 C2186.02211902 310.92244942 2194.29113118 308.97303137 2202.5625 307 C2212.56224861 304.61226131 2222.47358438 302.09999822 2232.3046875 299.08203125 C2237.09104149 297.68053014 2241.92067464 296.55683921 2246.78051758 295.44384766 C2253.1968814 293.97172368 2259.5502232 292.30478226 2265.90039062 290.56835938 C2268.1649023 289.95536133 2270.43364853 289.35996815 2272.703125 288.765625 C2286.1254293 285.21733219 2299.35183656 281.1334539 2312.58869934 276.95881653 C2313.25681137 276.7481102 2313.9249234 276.53740387 2314.61328125 276.3203125 C2315.2693486 276.11335251 2315.92541595 275.90639252 2316.60136414 275.69316101 C2323.29927118 273.58398577 2330.02399285 271.58587635 2336.77197266 269.64355469 C2339.46824693 268.86474919 2342.16187138 268.07707615 2344.85546875 267.2890625 C2361.93767412 262.29282256 2361.93767412 262.29282256 2370.25 259.9375 C2372.50048502 259.2933588 2374.75046191 258.64744042 2377 258 C2377.6403418 257.81711426 2378.28068359 257.63422852 2378.94042969 257.44580078 C2394.71093207 252.91723411 2410.23559412 247.64638733 2425.78530884 242.42199707 C2433.67179319 239.77231292 2441.56464791 237.14190239 2449.45825195 234.51351929 C2451.73482084 233.75505709 2454.01102521 232.99551115 2456.28710938 232.2355957 C2462.91085986 230.02460559 2469.53631092 227.81989596 2476.171875 225.64453125 C2489.49394788 221.27190402 2489.49394788 221.27190402 2502.5078125 216.07421875 C2506.92664971 214.16954754 2511.46353995 212.59910217 2516 211 C2516.66257812 210.76635742 2517.32515625 210.53271484 2518.0078125 210.29199219 C2518.72710938 210.03836914 2519.44640625 209.78474609 2520.1875 209.5234375 C2520.9297583 209.26167725 2521.6720166 208.99991699 2522.43676758 208.73022461 C2523.89450894 208.21679732 2525.3526547 207.70451617 2526.8112793 207.19360352 C2530.19175597 206.0065993 2533.55971685 204.79684291 2536.91015625 203.52734375 C2540.65200758 202.11446835 2544.42421765 200.80243056 2548.20605469 199.50097656 C2555.74932854 196.90354215 2563.19185034 194.2053244 2570.52734375 191.05859375 C2575.12626684 189.08970251 2579.74074173 187.35347601 2584.5625 186 C2589.51397289 184.55957152 2594.06106757 182.49786214 2598.625 180.125 C2605.11431525 176.84231904 2612.12676454 173.6032088 2619.3359375 172.48046875 C2620.21507813 172.32191406 2621.09421875 172.16335937 2622 172 C2622.33 171.34 2622.66 170.68 2623 170 C2625.1990671 168.99351489 2627.37291518 168.09547004 2629.62890625 167.234375 C2631.05656106 166.67464655 2632.48421397 166.11491326 2633.91186523 165.55517578 C2634.67006561 165.26096741 2635.42826599 164.96675903 2636.20944214 164.66363525 C2651.00094748 158.92045275 2665.58645061 152.80799487 2680.04321289 146.26855469 C2680.68578033 145.9811441 2681.32834778 145.69373352 2681.99038696 145.39761353 C2683.71741305 144.62507834 2685.44076424 143.84434238 2687.16381836 143.06298828 C2690 142 2690 142 2694 142 C2694 141.34 2694 140.68 2694 140 C2697.76827943 138.4244234 2701.54027448 136.85814332 2705.31591797 135.30029297 C2706.59919394 134.76929339 2707.8814356 134.23578684 2709.16259766 133.69970703 C2711.00668359 132.92859585 2712.85486363 132.1672988 2714.703125 131.40625 C2716.36843262 130.71499023 2716.36843262 130.71499023 2718.06738281 130.00976562 C2721 129 2721 129 2725 129 C2725 128.34 2725 127.68 2725 127 C2727.57952403 125.82421696 2730.16303938 124.659209 2732.75 123.5 C2733.84441406 122.99919922 2733.84441406 122.99919922 2734.9609375 122.48828125 C2736.02441406 122.01455078 2736.02441406 122.01455078 2737.109375 121.53125 C2737.75874023 121.23798828 2738.40810547 120.94472656 2739.07714844 120.64257812 C2741 120 2741 120 2745 120 C2745 119.34 2745 118.68 2745 118 C2746.41225926 117.32404685 2747.83002905 116.65959941 2749.25 116 C2750.03890625 115.62875 2750.8278125 115.2575 2751.640625 114.875 C2754 114 2754 114 2758 114 C2758 113.34 2758 112.68 2758 112 C2759.74552473 111.15733289 2761.4966208 110.32619962 2763.25 109.5 C2764.22453125 109.0359375 2765.1990625 108.571875 2766.203125 108.09375 C2769 107 2769 107 2773 107 C2773 106.34 2773 105.68 2773 105 C2773.85754883 104.61666504 2774.71509766 104.23333008 2775.59863281 103.83837891 C2778.78953849 102.41150548 2781.98009122 100.98384861 2785.17041016 99.55566406 C2786.54950184 98.93848896 2787.92873219 98.32162362 2789.30810547 97.70507812 C2791.29431382 96.81722724 2793.2800157 95.92825216 2795.265625 95.0390625 C2796.45961914 94.50490723 2797.65361328 93.97075195 2798.88378906 93.42041016 C2800.67222705 92.60521647 2802.44737017 91.75478158 2804.17089844 90.81005859 C2806 90 2806 90 2810 90 C2810 89.34 2810 88.68 2810 88 C2813.41056216 86.32062419 2816.8293694 84.65875927 2820.25 83 C2821.21808594 82.52304688 2822.18617188 82.04609375 2823.18359375 81.5546875 C2824.11816406 81.10351562 2825.05273438 80.65234375 2826.015625 80.1875 C2826.87446289 79.76855469 2827.73330078 79.34960938 2828.61816406 78.91796875 C2831 78 2831 78 2835 78 C2835 77.34 2835 76.68 2835 76 C2836.74552473 75.15733289 2838.4966208 74.32619962 2840.25 73.5 C2841.22453125 73.0359375 2842.1990625 72.571875 2843.203125 72.09375 C2846 71 2846 71 2850 71 C2850 70.34 2850 69.68 2850 69 C2850.5762915 68.72961914 2851.15258301 68.45923828 2851.74633789 68.18066406 C2863.72789127 62.54367572 2875.58554869 56.73335545 2887.296875 50.55371094 C2894.17003719 46.93319359 2901.09918609 43.44348951 2908.0625 40 C2915.81881527 36.1543951 2923.47781073 32.17399201 2931.0625 28 C2947.36566759 19.03098515 2963.70437737 10.36775242 2980.75390625 2.89453125 C2983.99450106 1.46934451 2987.13033364 -0.07337399 2990.25 -1.75 C3018.93638644 -16.31926807 3054.98527065 -15.17479691 3085 -6 C3088.08221566 -4.81848916 3091.03170569 -3.44031158 3094 -2 C3095.68242576 -1.24349085 3097.36607345 -0.48969469 3099.05078125 0.26171875 C3109.31228382 4.95120324 3118.37505586 9.64973683 3127 17 C3128.1709803 17.96072696 3129.3429071 18.92030108 3130.515625 19.87890625 C3145.65088642 32.38983549 3158.54138682 47.64033678 3166 66 C3166.309375 66.7425 3166.61875 67.485 3166.9375 68.25 C3167.99237275 70.82125233 3169.00483488 73.40506001 3170 76 C3170.33128906 76.85980469 3170.66257812 77.71960937 3171.00390625 78.60546875 C3172.12097177 81.71134895 3173.08384283 84.8286867 3174 88 C3174.18626953 88.64001953 3174.37253906 89.28003906 3174.56445312 89.93945312 C3183.17387845 120.96256878 3177.01550519 154.42235525 3172.3605957 185.57946777 C3172.04182274 187.71926096 3171.72878006 189.85973398 3171.41992188 192.00097656 C3170.35763703 199.34740532 3169.20823408 206.67624268 3168 214 C3167.82857483 215.04087769 3167.82857483 215.04087769 3167.65368652 216.1027832 C3166.1207693 225.40652338 3164.57606649 234.70830298 3163.00604248 244.00585938 C3162.47461696 247.15502022 3161.95117552 250.30495928 3161.44628906 253.45849609 C3160.55138564 259.0311452 3159.49809302 264.43270894 3158 269.875 C3157.67 271.08929687 3157.34 272.30359375 3157 273.5546875 C3156.36519166 275.74180062 3155.68870023 277.91757646 3154.95703125 280.07421875 C3153.99414348 283.01790422 3153.31092153 285.90453515 3152.6875 288.9375 C3152.29111328 290.81888672 3152.29111328 290.81888672 3151.88671875 292.73828125 C3151.43820761 294.88641355 3150.99282628 297.03508457 3150.55322266 299.18505859 C3147.55208707 313.80509838 3144.000037 328.27449798 3140.375 342.75 C3140.13330078 343.71593079 3139.89160156 344.68186157 3139.64257812 345.67706299 C3137.37648043 354.72053535 3135.10274459 363.75604289 3132.6003418 372.73754883 C3131.99704879 375.01112194 3131.48525452 377.28923249 3130.99609375 379.58984375 C3129.97132601 384.3435393 3128.55200293 388.93641156 3127.0625 393.5625 C3126.68448242 394.76036133 3126.68448242 394.76036133 3126.29882812 395.98242188 C3125.15832313 399.56144905 3123.96805537 403.08339146 3122.62353516 406.59326172 C3120.69555714 411.70453567 3119.09935196 416.91078863 3117.48828125 422.12890625 C3116.80541493 424.32228941 3116.12246951 426.51564794 3115.43945312 428.70898438 C3114.38314187 432.110496 3113.32802019 435.51236881 3112.2746582 438.91479492 C3105.86731784 459.59102877 3099.29928136 480.26455603 3091.0546875 500.296875 C3088.66121124 506.12971631 3086.56524777 512.04483119 3084.5 518 C3081.34736417 527.08324641 3077.94540176 535.95338437 3074 544.72265625 C3072.22259982 548.77040744 3070.62194587 552.88811379 3069 557 C3068.01593691 559.46400173 3067.02932611 561.92695717 3066.04077148 564.38916016 C3065.41753746 565.95258137 3064.80035657 567.51846701 3064.19555664 569.08911133 C3060.94848484 577.43912521 3057.16893035 585.54644176 3053.4375 593.6875 C3052.42456378 595.90183131 3051.41231129 598.1164716 3050.40089417 600.33149719 C3049.77635558 601.69880646 3049.15088339 603.06568986 3048.52427673 604.43205261 C3046.61975357 608.59611614 3044.79658374 612.78825306 3043 617 C3041.51563399 620.24705065 3040.00808071 623.48266013 3038.5 626.71875 C3037.51197633 628.88005178 3036.55579094 631.05623749 3035.63452148 633.24682617 C3034.02235144 637.01810492 3032.20772184 640.67796838 3030.34765625 644.33203125 C3029.64637257 645.7219488 3028.94520432 647.1119246 3028.24414062 648.50195312 C3027.15532835 650.65487085 3026.06523292 652.80711805 3024.97290039 654.95825195 C3019.45084578 665.81856822 3019.45084578 665.81856822 3014.79296875 677.0703125 C3013.59813881 679.97792822 3011.7774894 682.41977345 3010 685 C3009.60039062 685.9590625 3009.20078125 686.918125 3008.7890625 687.90625 C3006.41555707 693.57822443 3003.36932844 698.91544815 3000.4375 704.3125 C2999.80261001 705.4855284 2999.16784576 706.65862487 2998.53320312 707.83178711 C2993.86405945 716.45231138 2989.13828896 725.03970827 2984.34423828 733.59130859 C2982.84331854 736.28075178 2981.35706637 738.97805203 2979.87109375 741.67578125 C2968.28237254 762.64241613 2955.86170511 783.0739819 2942.9921875 803.27734375 C2940.84673172 806.64989732 2938.73227749 810.04003507 2936.6328125 813.44140625 C2923.9417203 833.97783792 2910.82321286 854.31711898 2896.52563477 873.77954102 C2892.66168135 879.04163959 2888.97009395 884.40529739 2885.3125 889.8125 C2880.13926553 897.44269382 2874.68512864 904.74523988 2869 912 C2867.53584359 913.9331033 2866.07750201 915.87062455 2864.625 917.8125 C2863.8928125 918.79089844 2863.160625 919.76929687 2862.40625 920.77734375 C2861.14211925 922.46939125 2859.8791062 924.16225894 2858.6171875 925.85595703 C2845.3430587 943.66866664 2831.44873973 960.92996453 2817.36328125 978.10546875 C2815.56232708 980.31126551 2813.76876758 982.52226099 2811.98046875 984.73828125 C2802.37365998 996.63318113 2792.55856028 1008.29292477 2782.22265625 1019.5625 C2780.32578236 1021.64272725 2778.46607057 1023.74556898 2776.625 1025.875 C2773.02223032 1030.02158397 2769.28682142 1034.04112004 2765.55444336 1038.07055664 C2759.85270324 1044.22965081 2754.1939483 1050.42351422 2748.75 1056.8125 C2745.01201853 1061.11816557 2740.95760347 1065.09838599 2736.88183594 1069.08129883 C2734.03233208 1071.88516542 2731.32037334 1074.74435339 2728.71484375 1077.77734375 C2724.3970892 1082.77150269 2719.73927071 1087.40678002 2715.0625 1092.0625 C2714.20720703 1092.92166016 2713.35191406 1093.78082031 2712.47070312 1094.66601562 C2708.80016685 1098.3309523 2705.13357145 1101.94464157 2701.18359375 1105.30859375 C2695.12224497 1110.5156738 2689.6129421 1116.32042603 2684 1122 C2670.80566845 1135.35096295 2670.80566845 1135.35096295 2664.71728516 1140.53222656 C2661.95792768 1142.89066517 2659.33430542 1145.39200066 2656.6875 1147.875 C2651.84342753 1152.38664993 2646.85339347 1156.63362708 2641.69140625 1160.78125 C2637.85309458 1163.94548952 2634.20631512 1167.30430375 2630.54296875 1170.66796875 C2619.41238497 1180.8752783 2607.71639368 1190.47757341 2596 1200 C2594.73807495 1201.03229994 2593.4763705 1202.0648696 2592.21484375 1203.09765625 C2585.00194297 1208.99302487 2577.73135655 1214.77709943 2570.3203125 1220.421875 C2567.28322457 1222.75753591 2564.32193556 1225.17830533 2561.36401367 1227.61303711 C2552.61520029 1234.81333093 2543.58970957 1241.565903 2534.42773438 1248.22949219 C2531.21350781 1250.57357616 2528.01504899 1252.93867394 2524.81640625 1255.30395508 C2515.75099917 1262.00532281 2506.64216456 1268.64564229 2497.48242188 1275.2175293 C2495.59575899 1276.57222302 2493.71219727 1277.9312369 2491.83007812 1279.29223633 C2483.72755337 1285.13564402 2475.49525257 1290.73575881 2467.125 1296.1875 C2466.19306824 1296.79653671 2466.19306824 1296.79653671 2465.24230957 1297.4178772 C2455.84442529 1303.55857076 2446.37538875 1309.5759172 2436.83642578 1315.49560547 C2429.51693689 1320.03886336 2422.24967706 1324.65872956 2415 1329.3125 C2397.88019454 1340.28633311 2380.61254592 1350.82925287 2363 1361 C2362.10619629 1361.51852539 2361.21239258 1362.03705078 2360.29150391 1362.57128906 C2346.850378 1370.36729446 2333.23380932 1377.80611706 2319.52246094 1385.11523438 C2316.57378942 1386.69298209 2313.63162293 1388.28155245 2310.69271851 1389.87733459 C2266.65180308 1413.7735802 2221.28159125 1435.03416849 2174.9911499 1454.17590332 C2169.39584304 1456.49168768 2163.80566685 1458.8197491 2158.21783447 1461.15350342 C2156.25439439 1461.97211008 2154.28916236 1462.78628749 2152.32373047 1463.60009766 C2146.13061708 1466.18338777 2140.06993587 1468.85523487 2134.14648438 1472.01342773 C2131.20015498 1473.36762668 2128.25301744 1473.88955021 2125.08203125 1474.47265625 C2122.90380168 1475.02436543 2121.395841 1475.81019634 2119.5 1477 C2116.18203861 1479.07659939 2113.06130705 1479.77183759 2109.24609375 1480.51171875 C2106.42072758 1481.12592879 2103.84053144 1482.09247866 2101.15625 1483.15234375 C2097.83283559 1484.45883094 2094.46380892 1485.63755439 2091.1015625 1486.83984375 C2089.40646771 1487.47390314 2087.71459627 1488.11829819 2086.04272461 1488.8112793 C2077.61642696 1492.2959466 2068.96700654 1495.08408261 2060.3125 1497.9375 C2058.75055668 1498.45479329 2057.18870715 1498.97236986 2055.62695312 1499.49023438 C2052.5600295 1500.50693792 2049.49239862 1501.5214666 2046.42431641 1502.53466797 C2043.53359988 1503.49028392 2040.64529978 1504.45266446 2037.75927734 1505.42236328 C2037.08897995 1505.64726944 2036.41868256 1505.8721756 2035.72807312 1506.10389709 C2033.92533426 1506.70944415 2032.12316661 1507.31669098 2030.32104492 1507.92407227 C2025.75426855 1509.40358292 2021.13855971 1510.68217336 2016.515625 1511.97265625 C2012.88920669 1513.03237627 2009.32518509 1514.21661233 2005.75 1515.4375 C1999.6422491 1517.51939951 1993.48484776 1519.29670115 1987.25708008 1520.98193359 C1980.93929717 1522.70442032 1974.69068272 1524.6200088 1968.4375 1526.5625 C1960.7591306 1528.9428009 1953.08955801 1531.07866374 1945.22631836 1532.75805664 C1941.58831396 1533.53447992 1941.58831396 1533.53447992 1938.171875 1534.95849609 C1935.47427669 1536.25210607 1932.87117492 1536.83748882 1929.94921875 1537.48828125 C1929.3267627 1537.62774673 1928.70430664 1537.76721222 1928.06298828 1537.91090393 C1925.93911575 1538.38414348 1923.8134255 1538.84857567 1921.6875 1539.3125 C1920.94432526 1539.47663391 1920.20115051 1539.64076782 1919.43545532 1539.80987549 C1907.59296705 1542.42472556 1895.72153477 1544.89917042 1883.84375 1547.34765625 C1883.14070047 1547.49259584 1882.43765095 1547.63753544 1881.71329689 1547.78686714 C1874.57272201 1549.25823147 1867.43114119 1550.72456018 1860.28735924 1552.18027782 C1858.23021735 1552.59972182 1856.17330094 1553.02025386 1854.11645508 1553.44114685 C1851.57095155 1553.96168011 1849.02499477 1554.48000349 1846.47851562 1554.9957428 C1839.68450755 1556.36990659 1839.68450755 1556.36990659 1832.98242188 1558.12353516 C1830.32242447 1558.9052469 1827.82467576 1559.41894407 1825.08203125 1559.78125 C1824.22029297 1559.90113281 1823.35855469 1560.02101563 1822.47070312 1560.14453125 C1820.68705417 1560.38305007 1818.90319607 1560.62000966 1817.11914062 1560.85546875 C1816.26126953 1560.97535156 1815.40339844 1561.09523438 1814.51953125 1561.21875 C1813.36094604 1561.3724707 1813.36094604 1561.3724707 1812.17895508 1561.52929688 C1809.98278157 1561.90187604 1809.98278157 1561.90187604 1808.11962891 1562.98852539 C1805.28992421 1564.33884404 1802.67694435 1564.58963413 1799.56640625 1564.96484375 C1798.28918701 1565.12331787 1797.01196777 1565.28179199 1795.69604492 1565.44506836 C1794.68530411 1565.56541946 1794.68530411 1565.56541946 1793.65414429 1565.6882019 C1790.81958559 1566.0260462 1787.98718342 1566.38052982 1785.15455627 1566.73414612 C1783.73492683 1566.91124277 1782.31519794 1567.08754413 1780.89537048 1567.26304626 C1775.48424767 1567.93282707 1770.08357158 1568.65643091 1764.6875 1569.4375 C1763.88248047 1569.55287109 1763.07746094 1569.66824219 1762.24804688 1569.78710938 C1756.99140322 1570.54725142 1751.74140478 1571.34646779 1746.4921875 1572.15625 C1743.68273498 1572.58628726 1740.87279689 1573.01301668 1738.0625 1573.4375 C1737.35556 1573.54436127 1736.64862 1573.65122253 1735.92025757 1573.76132202 C1721.97723698 1575.8509905 1707.99147042 1577.37348818 1693.96118164 1578.74389648 C1692.78272423 1578.86059944 1692.78272423 1578.86059944 1691.58045959 1578.97966003 C1690.10470365 1579.12506816 1688.62858662 1579.2668719 1687.15208435 1579.40449524 C1683.45495652 1579.73811036 1683.45495652 1579.73811036 1680 1581 C1677.35176906 1581.36858419 1674.72201965 1581.6744647 1672.0625 1581.9375 C1671.21727783 1582.02249756 1670.37205566 1582.10749512 1669.5012207 1582.19506836 C1658.70638676 1583.21225051 1647.8755643 1583.74476142 1637.04907227 1584.30249023 C1636.30676361 1584.341716 1635.56445496 1584.38094177 1634.7996521 1584.4213562 C1632.76330448 1584.5284961 1630.72675027 1584.63168853 1628.69018555 1584.73461914 C1625.05558159 1584.94992096 1625.05558159 1584.94992096 1621.70043945 1585.48654175 C1618.15740641 1585.97815891 1614.67264815 1586.27068288 1611.1027832 1586.48071289 C1610.11576715 1586.53941936 1610.11576715 1586.53941936 1609.10881138 1586.59931183 C1606.92300613 1586.72765717 1604.73695387 1586.8507357 1602.55078125 1586.97265625 C1601.78217899 1587.01603559 1601.01357674 1587.05941494 1600.2216835 1587.10410881 C1528.26064141 1591.14362729 1456.81613569 1591.1745116 1384.9083252 1586.26098633 C1380.99202623 1585.99946754 1377.07502039 1585.75558236 1373.15722656 1585.51757812 C1355.19522736 1584.42065249 1337.28767852 1582.97120753 1319.375 1581.25 C1318.01910003 1581.12091676 1316.66319378 1580.99189942 1315.30728149 1580.86294556 C1297.05972596 1579.12162546 1278.85572958 1577.13479877 1260.6875 1574.6875 C1259.24911774 1574.4943219 1259.24911774 1574.4943219 1257.78167725 1574.29724121 C1255.12825507 1573.93761756 1252.47598083 1573.57086876 1249.82421875 1573.19921875 C1248.66337517 1573.03866249 1248.66337517 1573.03866249 1247.4790802 1572.87486267 C1242.23874076 1572.11937038 1242.23874076 1572.11937038 1240 1571 C1237.73078464 1570.86510609 1235.4592933 1570.76806005 1233.1875 1570.6875 C1226.05991793 1570.32377412 1219.2675586 1569.21838771 1212.28271484 1567.7980957 C1201.23233553 1565.58115625 1190.09940312 1563.87231528 1178.9699707 1562.10668945 C1178.19008789 1561.98228989 1177.41020508 1561.85789032 1176.60668945 1561.72972107 C1175.15068943 1561.49766472 1173.69441372 1561.26732747 1172.23779297 1561.03919983 C1166.79397526 1560.17204555 1161.39942977 1559.10814009 1156 1558 C1155.13487289 1557.82373077 1154.26974579 1557.64746155 1153.37840271 1557.46585083 C1147.4373532 1556.25322894 1141.4994266 1555.02548707 1135.56176758 1553.79638672 C1133.40488341 1553.35071601 1131.24765852 1552.90669096 1129.09008789 1552.46435547 C1117.97081383 1550.18395766 1106.92919686 1547.8381209 1095.98950195 1544.80419922 C1092.3179387 1543.81652022 1088.68770945 1543.12027403 1084.9375 1542.5 C1078.55109526 1541.38969619 1072.4223346 1539.75579697 1066.21484375 1537.8984375 C1063.3847525 1537.107525 1060.64707626 1536.52991261 1057.75 1536.0625 C1051.45620689 1535.00594428 1045.38933918 1533.22631663 1039.26171875 1531.48046875 C1035.46197213 1530.40057155 1031.65183691 1529.36991932 1027.83203125 1528.36328125 C1016.44661677 1525.36074091 1005.16652946 1522.19607792 993.96875 1518.55297852 C987.92858769 1516.59310365 981.86376992 1514.77832993 975.75 1513.0625 C932.48598307 1500.88755663 932.48598307 1500.88755663 913.23046875 1492.8671875 C910.05300809 1491.6318175 906.80535787 1490.70981706 903.51953125 1489.80859375 C900.94276741 1488.98163233 898.52211253 1487.92090576 896.0456543 1486.83618164 C891.94681381 1485.16073962 887.71044754 1483.86378004 883.5 1482.5 C877.53204227 1480.5669557 871.75173388 1478.51914579 866 1476 C864.19175556 1475.28544901 862.38022461 1474.57918766 860.56640625 1473.87890625 C859.58736328 1473.50056641 858.60832031 1473.12222656 857.59960938 1472.73242188 C855.57958052 1471.95428857 853.55874876 1471.17823629 851.53710938 1470.40429688 C846.48137564 1468.44648809 841.59565299 1466.37813018 836.78100586 1463.88647461 C834.09583541 1462.54996276 831.31415831 1461.53092928 828.5 1460.5 C824.90028651 1459.14597933 821.40497763 1457.78905604 818 1456 C813.60581304 1453.70136018 808.99809223 1452.03323375 804.36328125 1450.28515625 C800.19911992 1448.69397265 796.09119591 1446.98681084 791.984375 1445.25390625 C789.93790519 1444.39406749 787.88543623 1443.54840951 785.828125 1442.71484375 C777.07000623 1439.15277306 777.07000623 1439.15277306 773.375 1436.9375 C769.93370887 1434.96194398 766.52066255 1433.52987866 762.8203125 1432.125 C753.75321488 1428.5082076 745.21369913 1424.02595685 736.61523438 1419.421875 C731.29703505 1416.60823849 726.00533492 1414.12011457 720.39233398 1411.95703125 C716.40110509 1410.36037677 712.58378388 1408.43913332 708.75 1406.5 C707.90155518 1406.07348145 707.05311035 1405.64696289 706.17895508 1405.20751953 C696.85396482 1400.48076988 687.70403269 1395.43801717 678.54736328 1390.39550781 C674.75525118 1388.3180962 670.94293067 1386.27948023 667.125 1384.25 C666.49424561 1383.91468262 665.86349121 1383.57936523 665.21362305 1383.23388672 C663.8095634 1382.48835054 662.4048683 1381.74401125 661 1381 C661 1380.34 661 1379.68 661 1379 C660.28642334 1378.89075195 659.57284668 1378.78150391 658.83764648 1378.66894531 C655.73769521 1377.9381644 653.39794215 1376.80932758 650.59765625 1375.296875 C649.55424072 1374.73564941 648.5108252 1374.17442383 647.43579102 1373.59619141 C646.32260498 1372.98694824 645.20941895 1372.37770508 644.0625 1371.75 C642.88925298 1371.11244638 641.71599436 1370.47491413 640.54272461 1369.83740234 C630.54611912 1364.38330899 620.73175868 1358.64087536 610.97070312 1352.77734375 C607.66011193 1350.79664816 604.3390462 1348.83404983 601.015625 1346.875 C599.80718913 1346.16198246 598.59877441 1345.44892909 597.39038086 1344.73583984 C595.07669852 1343.37054314 592.7623175 1342.00645675 590.44750977 1340.64306641 C584.458827 1337.10120249 578.54238436 1333.47372365 572.68725586 1329.71533203 C569.9918955 1327.99482673 567.27773942 1326.30909658 564.5546875 1324.6328125 C550.89482477 1316.20867111 537.56687534 1307.38451023 524.34472656 1298.29150391 C520.76977675 1295.8377244 517.17881984 1293.40788653 513.5859375 1290.98046875 C512.6509845 1290.34834976 512.6509845 1290.34834976 511.69714355 1289.70346069 C508.0323611 1287.22581511 508.0323611 1287.22581511 504.36560059 1284.75109863 C496.79918208 1279.64701243 489.35918006 1274.39885284 482 1269 C480.48333778 1267.9066772 478.96518937 1266.81541205 477.4453125 1265.7265625 C468.49954939 1259.30872904 459.67778786 1252.77714298 451 1246 C448.78287981 1244.27459653 446.56501404 1242.55015389 444.34716797 1240.82568359 C442.78320046 1239.60919212 441.21972313 1238.39207018 439.65673828 1237.17431641 C435.24639783 1233.73927683 430.81921704 1230.32855891 426.375 1226.9375 C419.3885902 1221.57624747 412.57953084 1216.00274617 405.75976562 1210.43212891 C403.54026719 1208.62586118 401.30333139 1206.84220793 399.0625 1205.0625 C393.76513996 1200.83892916 388.54306748 1196.52456685 383.31982422 1192.20996094 C378.61830844 1188.32635587 378.61830844 1188.32635587 373.8828125 1184.484375 C367.51786674 1179.35552016 361.47078885 1173.93862052 355.48632812 1168.37744141 C349.40885085 1162.74519325 343.25757787 1157.19789167 337.0078125 1151.7578125 C329.76873184 1145.42009597 322.68638238 1138.90690313 315.63208008 1132.36499023 C313.32083475 1130.22206959 311.00533671 1128.08392342 308.6862793 1125.94946289 C299.3432883 1117.3207448 290.27925081 1108.43459284 281.29931641 1099.4296875 C278.97803685 1097.10298555 276.65137337 1094.78176172 274.32421875 1092.4609375 C272.81999133 1090.95605012 271.31607369 1089.45085303 269.8125 1087.9453125 C269.13010254 1087.26493927 268.44770508 1086.58456604 267.74462891 1085.88357544 C263.86740404 1081.98759947 260.18884083 1077.97870934 256.59667969 1073.81906128 C254.48421933 1071.41238267 252.24916905 1069.15353948 249.96875 1066.90625 C249.07542969 1066.02066406 248.18210937 1065.13507813 247.26171875 1064.22265625 C245.89466797 1062.87494141 245.89466797 1062.87494141 244.5 1061.5 C238.42700909 1055.51290712 232.53402872 1049.48943872 227 1043 C225.50429773 1041.32947538 224.00495734 1039.66219168 222.5 1038 C217.66772724 1032.63983189 212.90181144 1027.22990426 208.21484375 1021.7421875 C202.88466946 1015.50144177 197.52172474 1009.30641511 192.01171875 1003.22265625 C186.71674756 997.3724842 181.63513004 991.3791068 176.65625 985.2578125 C174.04616747 982.0499238 171.41385853 978.86059573 168.78100586 975.67138672 C160.58888535 965.74450251 152.53585109 955.765203 144.84326172 945.44506836 C140.95917114 940.24594432 136.9967621 935.11286602 133 930 C119.30575077 912.45757873 105.93510637 894.63934695 93.6875 876.05078125 C90.55629432 871.30785603 87.33665359 866.62614129 84.125 861.9375 C74.62497673 848.04177831 65.29603036 834.03268842 56 820 C55.43265137 819.14535156 54.86530273 818.29070313 54.28076172 817.41015625 C47.13134609 806.61607998 40.46989368 795.54727571 33.84375 784.42578125 C30.75681663 779.24938767 27.62318826 774.10359191 24.46972656 768.9675293 C18.02256298 758.45865266 11.8692348 747.84102643 6 737 C5.50677246 736.09169434 5.01354492 735.18338867 4.50537109 734.24755859 C1.76429517 729.19962825 -0.97021562 724.14821644 -3.69921875 719.09375 C-5.83214913 715.14754674 -7.97974354 711.2100646 -10.14453125 707.28125 C-18.69916016 691.74558612 -26.73007189 676.02197163 -34.15234375 659.9140625 C-36.35863311 655.18612359 -38.71586887 650.5344041 -41.0625 645.875 C-45.5929337 636.86640035 -49.888568 627.7824116 -53.96484375 618.55859375 C-54.309104 617.7797583 -54.65336426 617.00092285 -55.00805664 616.19848633 C-55.70714515 614.61659423 -56.40555785 613.03440328 -57.10327148 611.4519043 C-58.86650753 607.47326598 -60.68532237 603.55333982 -62.6875 599.6875 C-64.43385028 596.28427606 -65.86495927 592.85480125 -67.20703125 589.2734375 C-70.31910519 581.0980003 -73.65665111 573.02052713 -77 564.9375 C-77.60951205 563.460343 -78.21888758 561.98312966 -78.828125 560.50585938 C-79.42700388 559.05465471 -80.02596126 557.60348243 -80.625 556.15234375 C-81.06160698 555.09459999 -81.06160698 555.09459999 -81.5070343 554.01548767 C-83.23018756 549.84632429 -84.97607996 545.68739011 -86.73046875 541.53125 C-88.78710709 536.60026868 -90.60191707 531.62235778 -92.3125 526.5625 C-95.69986103 516.71146238 -99.38107537 506.98543941 -103.13085938 497.26757812 C-103.92793442 495.1880183 -104.70904701 493.10336803 -105.484375 491.015625 C-106.53776764 488.18343288 -107.66294816 485.39044182 -108.81640625 482.59765625 C-111.56016814 475.7688826 -113.83899692 468.78138284 -116.15405273 461.79858398 C-116.9283336 459.46512489 -117.70892803 457.13384915 -118.49023438 454.80273438 C-121.22058438 446.61811709 -123.79624116 438.40872587 -126.19277954 430.12031555 C-128.19955509 423.21993998 -130.49159396 416.42557897 -132.8125 409.625 C-137.23226769 396.55611397 -141.28908152 383.39887367 -145.09545898 370.13696289 C-145.71458156 367.98983578 -146.34485309 365.84590077 -146.98461914 363.70483398 C-149.45846332 355.32194757 -151.41865036 346.90594002 -153.20666504 338.35800171 C-154.05100421 334.32713422 -154.91392116 330.3002538 -155.77734375 326.2734375 C-155.95645294 325.437556 -156.13556213 324.6016745 -156.32009888 323.74046326 C-158.37297392 314.20208819 -160.55226552 304.69337471 -162.75 295.1875 C-163.02654922 293.98723679 -163.02654922 293.98723679 -163.3086853 292.76272583 C-165.48518932 283.32366 -167.74616382 273.91376139 -170.15844727 264.53198242 C-171.20596464 260.13556995 -171.95383219 255.72791748 -172.60546875 251.2578125 C-172.89331256 248.97455936 -172.89331256 248.97455936 -174 247 C-174.25192379 245.56179991 -174.461841 244.11609404 -174.6484375 242.66796875 C-174.82354858 241.35614624 -174.82354858 241.35614624 -175.00219727 240.01782227 C-175.12522217 239.08381592 -175.24824707 238.14980957 -175.375 237.1875 C-176.35342455 230.01380023 -177.58247824 223.03844319 -179.31640625 216.00390625 C-180.59269448 210.39553113 -181.24043492 204.69673811 -182 199 C-182.21376474 197.53480688 -182.43004286 196.06997891 -182.6484375 194.60546875 C-183.8929654 186.21045371 -185.03965057 177.80958268 -186.046875 169.3828125 C-186.18091232 168.26248375 -186.18091232 168.26248375 -186.31765747 167.11952209 C-186.76566502 163.36190993 -187.20739104 159.60365685 -187.64208984 155.84448242 C-187.80561585 154.45490969 -187.96918796 153.06534238 -188.1328125 151.67578125 C-188.27605957 150.43739502 -188.41930664 149.19900879 -188.56689453 147.9230957 C-188.83436891 145.07185313 -188.83436891 145.07185313 -190 143 C-190.135916 140.48564776 -190.21215112 138.00042529 -190.23828125 135.484375 C-190.24802979 134.7250618 -190.25777832 133.9657486 -190.26782227 133.1834259 C-190.49058265 111.28538422 -189.85306536 90.41676028 -181 70 C-180.52046875 68.89011719 -180.0409375 67.78023437 -179.546875 66.63671875 C-167.12962608 40.02402264 -145.59222071 18.12245262 -120 4 C-119.36126953 3.63664551 -118.72253906 3.27329102 -118.06445312 2.89892578 C-82.0558875 -17.22502236 -36.98597808 -17.47825616 0 0 Z " fill="#FEFEFE" transform="translate(554,1994)"/>
<path d="M0 0 C-1.96417618 6.73534195 -4.10344643 13.38406806 -6.4375 20 C-6.74606934 20.87720703 -7.05463867 21.75441406 -7.37255859 22.65820312 C-9.77256133 29.44032554 -12.33018346 36.12225328 -15.17578125 42.73046875 C-17.81859519 48.92430824 -20.10997083 55.1670641 -22.19506836 61.56640625 C-23.91234618 66.81338162 -25.86543529 71.9111328 -28 77 C-28.39058594 77.94230469 -28.78117187 78.88460937 -29.18359375 79.85546875 C-30.8627928 83.89914745 -32.55220125 87.93839611 -34.25390625 91.97265625 C-36.45101678 97.20026406 -38.56126601 102.44397594 -40.5625 107.75 C-42.20238271 112.05790506 -43.98133903 116.17425001 -46.10546875 120.26171875 C-48.63330522 125.17389006 -50.50158304 130.33558737 -52.4375 135.5 C-54.27917034 140.33369332 -56.34654994 144.57758323 -59 149 C-60.01529541 151.32671865 -61.01488198 153.6603447 -62 156 C-62.6571109 157.33806857 -63.32413289 158.6713067 -64 160 C-65.49702106 162.95449817 -66.8610478 165.93541976 -68.140625 168.9921875 C-70.01184257 173.36403219 -72.02167119 177.67582675 -74 182 C-74.66 182 -75.32 182 -76 182 C-76.40835083 183.30239624 -76.40835083 183.30239624 -76.82495117 184.63110352 C-78.80363949 190.30405596 -81.6171295 195.57769722 -84.3125 200.9375 C-84.77727249 201.86530777 -84.77727249 201.86530777 -85.25143433 202.81185913 C-90.94008732 214.14746666 -97.04086891 225.21066578 -103.38671875 236.19238281 C-105.59438582 240.03441842 -107.75736775 243.90095646 -109.92333984 247.76660156 C-135.4408005 293.23739383 -164.40879879 337.7074884 -195.9375 379.2578125 C-197.91933862 381.89275703 -199.83748198 384.56450595 -201.75 387.25 C-206.72806922 394.12969167 -212.15194386 400.64535917 -217.53564453 407.20800781 C-219.3560031 409.43565568 -221.14930035 411.68398388 -222.9375 413.9375 C-227.75756122 419.98300052 -232.69477536 425.93238646 -237.6171875 431.89453125 C-240.2826423 435.12442665 -242.92633475 438.37113551 -245.5625 441.625 C-254.75612752 452.87306942 -264.43680622 463.72279842 -274.234375 474.4453125 C-278.1040638 478.70197018 -281.84254404 483.00788456 -285.4375 487.5 C-289.17011594 492.11854224 -293.16610846 496.3044578 -297.4453125 500.41796875 C-299.46892122 502.46323689 -301.3393652 504.52506878 -303.21069336 506.70410156 C-306.72171382 510.73182994 -310.40025912 514.54548663 -314.18359375 518.31640625 C-314.84279312 518.97656235 -315.50199249 519.63671844 -316.1811676 520.31687927 C-317.56396835 521.70035506 -318.94801076 523.08259083 -320.33325195 524.46362305 C-322.43230343 526.55731669 -324.5259594 528.65629874 -326.61914062 530.75585938 C-327.97363786 532.10969571 -329.32844531 533.46322175 -330.68359375 534.81640625 C-331.29843124 535.43326797 -331.91326874 536.0501297 -332.54673767 536.6856842 C-336.28337493 540.40260672 -340.13447195 543.92984642 -344.13795471 547.35813904 C-347.41434289 550.24709876 -350.44496147 553.38064487 -353.5 556.5 C-357.84077987 560.93216471 -362.26128462 565.16202755 -366.95996094 569.21386719 C-370.52448945 572.33474926 -373.93993842 575.6131447 -377.375 578.875 C-386.02027793 587.04040046 -394.7081553 595.01176921 -403.9609375 602.4921875 C-407.47057685 605.38831663 -410.89024134 608.37674574 -414.3125 611.375 C-419.6171369 616.00960572 -425.02319517 620.45685205 -430.59350586 624.76733398 C-435.26967964 628.39464635 -439.82673024 632.15156764 -444.375 635.9375 C-451.09159205 641.51019847 -457.96284083 646.81628323 -464.9765625 652.0078125 C-468.43342774 654.56714123 -471.84814006 657.17737175 -475.25463867 659.80322266 C-484.01158899 666.55267866 -492.91589449 673.07485283 -501.91015625 679.50390625 C-503.85041561 680.89291435 -505.78552284 682.28872873 -507.71875 683.6875 C-515.40473185 689.2359919 -523.22773067 694.54725976 -531.13964844 699.76757812 C-532.93465286 700.95670967 -534.72247064 702.15579624 -536.5078125 703.359375 C-553.98936651 715.13157938 -571.84863714 726.29275435 -590 737 C-590.91442871 737.54092285 -591.82885742 738.0818457 -592.77099609 738.63916016 C-605.33320689 746.06004699 -617.9911017 753.28856752 -630.77368164 760.32348633 C-635.68266558 763.02879808 -640.5771315 765.74272184 -645.41210938 768.578125 C-659.66033853 776.9029875 -674.28665423 784.3766974 -689.05419922 791.72265625 C-692.49789509 793.43579227 -695.93590967 795.16001671 -699.37257576 796.88720322 C-702.04692516 798.22977949 -704.72408673 799.56666528 -707.40215683 800.90180206 C-708.67330783 801.53638028 -709.94357723 802.17272778 -711.21292496 802.81090546 C-712.96733864 803.6919085 -714.72600289 804.56443179 -716.48486328 805.43652344 C-717.97870041 806.18165192 -717.97870041 806.18165192 -719.50271606 806.9418335 C-722 808 -722 808 -725 808 C-725 808.66 -725 809.32 -725 810 C-726.26839526 810.50615298 -727.53983102 811.00469099 -728.8125 811.5 C-729.52019531 811.7784375 -730.22789063 812.056875 -730.95703125 812.34375 C-733 813 -733 813 -736 813 C-736 813.66 -736 814.32 -736 815 C-738.10171867 815.8394882 -740.20646625 816.67139656 -742.3125 817.5 C-743.48425781 817.9640625 -744.65601562 818.428125 -745.86328125 818.90625 C-749 820 -749 820 -752 820 C-752 820.66 -752 821.32 -752 822 C-754.97 822.66 -757.94 823.32 -761 824 C-761 824.66 -761 825.32 -761 826 C-763.31 826.33 -765.62 826.66 -768 827 C-768 827.66 -768 828.32 -768 829 C-770.5607445 829.98397585 -773.12341492 830.96229967 -775.6875 831.9375 C-776.40873047 832.21529297 -777.12996094 832.49308594 -777.87304688 832.77929688 C-781.56271893 834.17766574 -785.08108282 835.38936004 -789 836 C-789.33 836.99 -789.66 837.98 -790 839 C-794.5039021 841.51110415 -799.52375869 842.99580641 -804.5625 844 C-807.58970982 844.60753692 -810.14946827 845.42649856 -812.9375 846.75 C-817.44648652 848.87792522 -822.07816722 850.40295007 -826.8125 851.9375 C-832.01444534 853.62695275 -837.10414202 855.37832375 -842.125 857.5625 C-847.94167784 860.0830604 -853.87410898 861.8973594 -859.9453125 863.69140625 C-863.79217087 864.87845585 -867.4837485 866.36950604 -871.21044922 867.88696289 C-885.91408215 873.75374589 -900.91116986 878.97510042 -916.2265625 882.984375 C-919.66612349 883.91013676 -923.00845466 884.965316 -926.375 886.125 C-931.03955441 887.72645465 -935.71020308 888.9467521 -940.50390625 890.09375 C-944.85837755 891.22250681 -949.13939407 892.55024132 -953.4375 893.875 C-961.4476371 896.33208322 -969.49813368 898.41453149 -977.66967773 900.26318359 C-987.58739649 902.37919761 -987.58739649 902.37919761 -997 906 C-998.918125 906.185625 -998.918125 906.185625 -1000.875 906.375 C-1005.47179327 906.85277694 -1009.77259846 907.88042265 -1014.23828125 909.046875 C-1022.78161802 911.21154185 -1031.400096 913.0749408 -1040 915 C-1040.71075684 915.16032715 -1041.42151367 915.3206543 -1042.15380859 915.48583984 C-1049.19850655 917.07103122 -1056.21593023 918.36624705 -1063.359375 919.41015625 C-1067.72407576 920.1173127 -1072.04377735 920.98857884 -1076.375 921.875 C-1107.86409155 928.26400352 -1107.86409155 928.26400352 -1122.4296875 928.82421875 C-1124.93153121 928.71246011 -1124.93153121 928.71246011 -1126 930 C-1128.73436234 930.49374401 -1131.45930957 930.93356378 -1134.20703125 931.33984375 C-1135.04280197 931.46686172 -1135.87857269 931.5938797 -1136.7396698 931.7247467 C-1139.43004307 932.1328784 -1142.12122183 932.53538261 -1144.8125 932.9375 C-1147.45708082 933.336058 -1150.10148118 933.7357863 -1152.74578857 934.13615417 C-1154.46880945 934.39677465 -1156.19199515 934.65630786 -1157.91534424 934.91474915 C-1162.43607076 935.5958425 -1166.94033313 936.33010877 -1171.44140625 937.1328125 C-1178.70022653 938.36246264 -1186.00620562 938.70035729 -1193.34765625 939.12304688 C-1200.08870196 939.55160133 -1206.74791918 940.19665985 -1213.4488678 941.03485107 C-1231.48691102 943.26898204 -1249.54317334 944.29622657 -1267.6875 945.1875 C-1268.97859303 945.25184675 -1268.97859303 945.25184675 -1270.29576874 945.31749344 C-1334.18041606 948.48789093 -1398.17125678 948.20729872 -1462 944 C-1463.35103821 943.91298828 -1463.35103821 943.91298828 -1464.72937012 943.82421875 C-1475.84387069 943.10497908 -1486.92237331 942.15314868 -1498 941 C-1499.48953186 940.84501038 -1499.48953186 940.84501038 -1501.00915527 940.68688965 C-1566.95878963 933.78665197 -1566.95878963 933.78665197 -1595.22314453 928.43359375 C-1602.22566425 927.10854403 -1609.24743423 926.01471068 -1616.30688477 925.03881836 C-1620.64588553 924.42302231 -1624.80884296 923.57510716 -1629.04638672 922.46435547 C-1631.63271125 921.8496105 -1634.24482792 921.50357604 -1636.87963867 921.1652832 C-1665.58506826 917.45420831 -1693.9560534 910.00599792 -1722 903 C-1723.41617795 902.65022198 -1724.83244007 902.30078456 -1726.2487793 901.95166016 C-1727.66716509 901.60062691 -1729.08554099 901.24955369 -1730.50390625 900.8984375 C-1732.40378296 900.42929932 -1732.40378296 900.42929932 -1734.34204102 899.95068359 C-1738.95361518 898.75216061 -1743.49523285 897.37339507 -1748.03515625 895.9296875 C-1754.01509229 894.05455604 -1760.06030465 892.44868273 -1766.125 890.875 C-1774.7255499 888.62512959 -1783.30310683 886.29403044 -1791.875 883.9375 C-1793.07398926 883.60927246 -1794.27297852 883.28104492 -1795.50830078 882.94287109 C-1806.04007595 880.03840384 -1816.50647129 877.12655392 -1826.60546875 872.93359375 C-1829.80417703 871.68646279 -1833.06869661 870.76688269 -1836.36669922 869.82177734 C-1838.8631523 869.04270623 -1841.23091775 868.13250499 -1843.64453125 867.12890625 C-1848.92031353 864.99102672 -1854.27346845 863.18967748 -1859.6875 861.4375 C-1865.59536242 859.52476062 -1871.29393143 857.46194419 -1877 855 C-1881.15321635 853.49777281 -1885.34206498 852.09751777 -1889.52929688 850.69335938 C-1894.25298681 849.07555863 -1898.66247184 847.25258016 -1903.09008789 844.94848633 C-1906.21535372 843.39644009 -1909.46979216 842.24109577 -1912.75 841.0625 C-1921.68085559 837.7741515 -1930.45750691 834.34530365 -1938.9375 830 C-1942.79816317 828.03502144 -1946.62591003 826.31659147 -1950.6875 824.8125 C-1965.8726388 819.14094214 -1980.69176446 812.34204283 -1995.1171875 804.9609375 C-1999.53190348 802.70899796 -2004.01473653 800.60692468 -2008.5 798.5 C-2047.77549032 779.96962446 -2086.298088 758.79064248 -2122.96875 735.54296875 C-2125.93207695 733.66485616 -2128.91391098 731.819819 -2131.90625 729.98828125 C-2144.47838529 722.28786309 -2156.79174702 714.26372434 -2169 706 C-2170.01707031 705.31325195 -2171.03414062 704.62650391 -2172.08203125 703.91894531 C-2185.15600223 695.08723048 -2198.16945938 686.18219096 -2211 677 C-2211.72203613 676.48518066 -2212.44407227 675.97036133 -2213.18798828 675.43994141 C-2223.64006208 667.98193945 -2233.92032364 660.32905682 -2244.08056641 652.47851562 C-2245.83294532 651.12868012 -2247.5920655 649.78850748 -2249.35546875 648.453125 C-2262.95603946 638.11331224 -2275.99179721 627.06951917 -2289 616 C-2295.10805476 610.80688018 -2301.21514066 605.61873636 -2307.4375 600.5625 C-2317.22028034 592.57394139 -2326.70736053 584.48119341 -2335.55078125 575.45703125 C-2338.21960452 572.77969499 -2340.99155403 570.28916203 -2343.86523438 567.83618164 C-2351.61741428 561.1682785 -2358.95196073 554.15890541 -2366.125 546.875 C-2371.35386752 541.56605794 -2376.59260534 536.37356021 -2382.24902344 531.51953125 C-2387.65232587 526.83044113 -2392.67358325 521.63018945 -2397.3125 516.1875 C-2400.52244415 512.42858677 -2403.98835533 508.97310945 -2407.5 505.5 C-2412.21514964 500.82588619 -2416.7265118 496.08536175 -2421 491 C-2422.99525248 488.64177596 -2424.99597916 486.28827643 -2427 483.9375 C-2427.52368164 483.32318115 -2428.04736328 482.7088623 -2428.58691406 482.07592773 C-2431.73099174 478.41130411 -2434.95962032 474.9153729 -2438.43359375 471.55859375 C-2440.79783419 469.20614503 -2442.94899362 466.68197169 -2445.125 464.15625 C-2447.17359094 461.80037042 -2449.27203002 459.4949254 -2451.375 457.1875 C-2455.26485887 452.87711585 -2458.95804791 448.43887261 -2462.609375 443.92578125 C-2465.24025904 440.70595749 -2467.92764769 437.53906041 -2470.625 434.375 C-2474.19323561 430.17964942 -2477.6609416 425.93180669 -2481.00390625 421.5546875 C-2482.63128631 419.4718958 -2484.28517093 417.42312557 -2485.96484375 415.3828125 C-2491.63214446 408.4977864 -2497.14672743 401.58410111 -2502.26757812 394.28149414 C-2505.3625151 389.86947022 -2508.56293418 385.54922299 -2511.8125 381.25 C-2521.86839177 367.90629415 -2531.54786609 354.32560196 -2540.9296875 340.5 C-2543.0705739 337.34508238 -2545.25159648 334.22223963 -2547.453125 331.109375 C-2551.09179439 325.92414599 -2554.49852766 320.6084796 -2557.875 315.25 C-2559.1091159 313.30061719 -2560.3434904 311.35139808 -2561.578125 309.40234375 C-2562.16787109 308.47019043 -2562.75761719 307.53803711 -2563.36523438 306.57763672 C-2565.43615584 303.31228594 -2567.52807059 300.06120997 -2569.625 296.8125 C-2578.27299176 283.36719927 -2586.77863399 269.87215655 -2594.80419922 256.04443359 C-2595.95998915 254.06840565 -2597.13421728 252.10485728 -2598.31640625 250.14453125 C-2621.29701052 211.92814078 -2641.84994771 171.15407343 -2659 130 C-2659.42587402 128.9790625 -2659.85174805 127.958125 -2660.29052734 126.90625 C-2661.14912085 124.84537052 -2662.00698257 122.78418596 -2662.86401367 120.72265625 C-2664.22040759 117.47174179 -2665.60475874 114.23442293 -2667 111 C-2673.29004201 96.34997868 -2679.48993675 81.62405831 -2684.85546875 66.60546875 C-2686.79125463 61.2089718 -2688.84216305 55.87389135 -2691 50.5625 C-2693.24622282 45.02494166 -2695.23539377 39.44454412 -2697.0703125 33.7578125 C-2697.95213233 31.14199402 -2698.94265161 28.61161122 -2700 26.0625 C-2702.08245393 21.00863948 -2703.63255575 15.83226979 -2705.16796875 10.58984375 C-2705.75151384 8.0961745 -2705.75151384 8.0961745 -2707 7 C-2707.04063832 5.33382885 -2707.042721 3.66611905 -2707 2 C-2706.01 1.67 -2705.02 1.34 -2704 1 C-2702.65438501 2.17310024 -2701.31145517 3.34939069 -2699.98046875 4.5390625 C-2695.82544985 7.60410603 -2690.77897328 9.13957244 -2686 11 C-2683.99771149 11.82781954 -2681.99766533 12.66108542 -2680 13.5 C-2677.04866646 14.73099663 -2674.0966956 15.96010646 -2671.140625 17.1796875 C-2663.97236548 20.14385968 -2656.86172176 23.22849397 -2649.76171875 26.3515625 C-2647.27258504 27.44593408 -2644.77805795 28.52611175 -2642.27734375 29.59375 C-2639.79417541 30.65923344 -2637.33169604 31.75108643 -2634.875 32.875 C-2631.11151375 34.56052717 -2627.29604261 36.04579781 -2623.4375 37.5 C-2619.13547359 39.13008417 -2615.07276706 40.91085171 -2611.00390625 43.04296875 C-2608.65487564 44.16482548 -2606.26968684 45.01586849 -2603.8125 45.875 C-2599.69902743 47.31951163 -2595.80602418 48.99046406 -2591.875 50.875 C-2586.87250439 53.23992387 -2581.85540181 55.16535147 -2576.625 56.9375 C-2570.45342883 59.035545 -2564.61356845 61.47554512 -2558.75024414 64.31518555 C-2551.02646577 68.01805877 -2543.01153956 70.9860185 -2535 74 C-2534.32372559 74.2578125 -2533.64745117 74.515625 -2532.95068359 74.78125 C-2528.50203695 76.46981886 -2524.02270375 78.01776936 -2519.5 79.5 C-2513.1166914 81.61189454 -2506.83979703 83.84837724 -2500.609375 86.375 C-2493.67674069 89.18482784 -2486.75686444 91.82671154 -2479.63671875 94.13671875 C-2475.23630673 95.57744624 -2470.92333551 97.21028608 -2466.640625 98.96875 C-2461.69003046 100.99818627 -2456.77304895 102.75525799 -2451.6171875 104.19140625 C-2448.71441043 105.08823439 -2445.89694959 106.14295253 -2443.05761719 107.22143555 C-2430.98365549 111.79000031 -2418.69902409 115.79779428 -2406.44213867 119.84033203 C-2400.57793285 121.78011958 -2394.76687902 123.78787124 -2389 126 C-2387.23036607 126.64911258 -2385.4596655 127.29533116 -2383.6875 127.9375 C-2378 130 -2378 130 -2375.6446991 130.87033081 C-2369.36080676 133.18130693 -2363.04556767 135.33123297 -2356.6640625 137.35546875 C-2355.71525208 137.65832291 -2354.76644165 137.96117706 -2353.78887939 138.27320862 C-2350.73503203 139.24710557 -2347.68010145 140.2175449 -2344.625 141.1875 C-2342.49364312 141.86553089 -2340.36229553 142.54359101 -2338.23095703 143.22167969 C-2310.89604046 151.9111476 -2283.48913524 160.32166465 -2255.9730835 168.41870117 C-2254.18290611 168.94611322 -2252.39341522 169.47585401 -2250.60400391 170.00585938 C-2240.99013624 172.84999459 -2231.40356653 175.4427155 -2221.59741211 177.53515625 C-2210.70393397 179.88081009 -2200.03195885 182.99788381 -2189.4375 186.4375 C-2181.33879413 189.06345671 -2173.07692575 190.97092585 -2164.77905273 192.85717773 C-2160.37739739 193.87251654 -2156.09958132 194.86838714 -2151.90234375 196.5546875 C-2147.25776725 198.40508294 -2142.47419286 199.16426856 -2137.5625 200 C-2131.63590099 201.01280041 -2126.04889469 202.22197235 -2120.37426758 204.21606445 C-2111.10992116 207.27496588 -2101.36992839 209.10828684 -2091.875 211.3125 C-2090.56306211 211.61748054 -2089.25113191 211.92249415 -2087.93920898 212.22753906 C-2085.2651177 212.84909088 -2082.59085643 213.46990528 -2079.91650391 214.09033203 C-2076.2077987 214.95107924 -2072.50034822 215.81715347 -2068.79296875 216.68359375 C-2058.91749392 218.98575201 -2049.05324179 221.25421671 -2039.09765625 223.18359375 C-2033.73686466 224.23512842 -2028.40213303 225.40928516 -2023.0625 226.5625 C-2010.51273851 229.25962499 -1997.95785825 231.93272588 -1985.39620972 234.57394409 C-1983.28000695 235.01981533 -1981.16421216 235.46762788 -1979.04885864 235.91751099 C-1968.41515198 238.17756195 -1957.86859104 240.37260373 -1947.05200195 241.53417969 C-1943.85653752 242.02189636 -1941.04426504 242.92983264 -1938 244 C-1935.39464952 244.52436453 -1932.8074105 245.00514949 -1930.1875 245.4375 C-1928.66401562 245.69633882 -1927.14057937 245.95546104 -1925.6171875 246.21484375 C-1924.84600586 246.34487793 -1924.07482422 246.47491211 -1923.28027344 246.60888672 C-1921.14462857 246.97519326 -1919.01346938 247.35973987 -1916.8828125 247.75390625 C-1909.10865538 249.18433617 -1901.34080989 250.36994692 -1893.5 251.375 C-1885.39950849 252.421509 -1877.43421842 253.84057034 -1869.4375 255.5 C-1860.12686222 257.43068874 -1850.84220483 258.97566994 -1841.421875 260.25 C-1835.18352142 261.09666693 -1828.96703842 262.07272047 -1822.75 263.0625 C-1821.71423828 263.22500244 -1820.67847656 263.38750488 -1819.61132812 263.55493164 C-1815.11391838 264.27438553 -1810.66525417 265.04448125 -1806.23046875 266.0859375 C-1802.34106381 266.98372796 -1798.55517028 267.35696276 -1794.5625 267.5625 C-1788.2026538 267.8986731 -1788.2026538 267.8986731 -1786 269 C-1783.92659307 269.33980887 -1781.84536645 269.63234628 -1779.76171875 269.90234375 C-1777.83634277 270.15274414 -1777.83634277 270.15274414 -1775.87207031 270.40820312 C-1774.47725908 270.5849951 -1773.08240113 270.76141876 -1771.6875 270.9375 C-1770.9807312 271.02781494 -1770.2739624 271.11812988 -1769.54577637 271.21118164 C-1760.49749116 272.3658459 -1751.44978697 273.4086811 -1742.36279297 274.21069336 C-1733.66252638 274.99282493 -1724.9897746 275.99941182 -1716.3125 277 C-1714.76725496 277.17751078 -1713.22200759 277.35500121 -1711.67675781 277.5324707 C-1705.58912067 278.23289544 -1699.5020242 278.93695235 -1693.41796875 279.66796875 C-1685.19318837 280.64275754 -1677.02483226 281.2404071 -1668.75 281.60839844 C-1663.28853889 281.87244428 -1657.99774357 282.50534917 -1652.60595703 283.43821716 C-1639.14947509 285.53464275 -1625.52179526 286.39272999 -1611.9375 287.18359375 C-1610.26620482 287.28426683 -1608.59493568 287.38537284 -1606.9236908 287.48687744 C-1602.52191329 287.75337325 -1598.11987086 288.01519992 -1593.71775436 288.27602768 C-1585.47938199 288.76550131 -1577.24165632 289.26580758 -1569.00390625 289.765625 C-1568.11124117 289.81964163 -1567.21857609 289.87365826 -1566.29886055 289.92931175 C-1553.63978239 290.69645282 -1540.99051038 291.54739217 -1528.34436035 292.50595093 C-1503.55600631 294.37573231 -1478.7191901 295.16686388 -1453.87432861 295.88543701 C-1451.20484915 295.96437289 -1448.53562703 296.04623623 -1445.86639404 296.13262939 C-1417.17889159 297.05724538 -1388.50436708 297.16164169 -1359.80362701 297.12897491 C-1356.07593283 297.12494698 -1352.34824013 297.12246723 -1348.62054443 297.12030029 C-1300.19538633 297.08789328 -1251.82634648 296.90680368 -1203.46447754 294.19262695 C-1199.43974488 293.96884949 -1195.41472625 293.7506679 -1191.38964844 293.53320312 C-1182.49165199 293.05214954 -1173.59404384 292.56426351 -1164.69663239 292.07251358 C-1162.26163064 291.93814182 -1159.82658827 291.80452531 -1157.39154053 291.67098999 C-1153.53366633 291.45901314 -1149.67601526 291.24332735 -1145.81850052 291.02490997 C-1144.3807568 290.9439968 -1142.94294941 290.86420608 -1141.50507736 290.78560638 C-1139.51395334 290.67652247 -1137.52308251 290.5628464 -1135.53222656 290.44897461 C-1133.85027191 290.35476479 -1133.85027191 290.35476479 -1132.13433838 290.25865173 C-1129.04429666 290.00365545 -1126.0549601 289.51932029 -1123 289 C-1121.53548061 288.88735456 -1120.06834675 288.80358019 -1118.6003418 288.75390625 C-1117.78668655 288.72240479 -1116.97303131 288.69090332 -1116.13471985 288.65844727 C-1114.8363343 288.61095337 -1114.8363343 288.61095337 -1113.51171875 288.5625 C-1102.23791904 288.08654556 -1091.0412457 287.0874443 -1079.8125 286 C-1076.09023518 285.64158604 -1072.3676431 285.2870084 -1068.64453125 284.9375 C-1067.75009308 284.85322754 -1066.85565491 284.76895508 -1065.93411255 284.68212891 C-1059.14778926 284.06125433 -1052.36194848 283.62923119 -1045.55342102 283.34155273 C-1042.475419 283.200954 -1039.94188482 282.98062827 -1037 282 C-1035.34464901 281.77573245 -1033.68374018 281.59142271 -1032.02099609 281.4309082 C-1030.996418 281.33000381 -1029.9718399 281.22909943 -1028.91621399 281.12513733 C-1027.79659775 281.01809982 -1026.67698151 280.91106232 -1025.5234375 280.80078125 C-1023.09576134 280.56175862 -1020.66810939 280.32249001 -1018.24047852 280.08300781 C-1016.95746857 279.95752563 -1015.67445862 279.83204346 -1014.35256958 279.70275879 C-993.06117854 277.61375637 -971.79650665 275.36766787 -950.5625 272.75 C-949.54605408 272.62557526 -948.52960815 272.50115051 -947.48236084 272.37295532 C-938.21357197 271.23445266 -928.96797496 270.07563117 -919.76733398 268.46484375 C-914.28253534 267.54353306 -908.76225166 266.85996689 -903.25 266.125 C-885.60548077 263.72671583 -868.08310309 260.84279073 -850.60644531 257.43408203 C-843.91977855 256.14108725 -837.21435895 255.03537408 -830.47729492 254.03881836 C-826.75341471 253.47883951 -823.09267617 252.8209092 -819.421875 251.9765625 C-814.27030561 250.79622672 -809.08793369 250.19000916 -803.84375 249.5625 C-800.34087077 249.04988353 -796.96730802 248.35460749 -793.52197266 247.56201172 C-788.5174512 246.44677373 -783.47373785 245.52206373 -778.4375 244.5625 C-777.27927734 244.34078125 -776.12105469 244.1190625 -774.92773438 243.890625 C-768.95399889 242.74863644 -762.97853131 241.61658802 -757 240.5 C-740.43182254 237.401041 -723.88320365 234.21755906 -707.375 230.8125 C-706.16046143 230.56266357 -704.94592285 230.31282715 -703.69458008 230.05541992 C-702.54497803 229.81670166 -701.39537598 229.5779834 -700.2109375 229.33203125 C-699.20337402 229.12296143 -698.19581055 228.9138916 -697.15771484 228.69848633 C-694.78470983 228.17357776 -692.43587905 227.61393274 -690.08105469 227.0168457 C-686.23692553 226.0453062 -682.37443422 225.20635787 -678.4921875 224.3984375 C-676.96671048 224.07821076 -675.44132519 223.75754686 -673.91601562 223.43652344 C-673.10044189 223.26503784 -672.28486816 223.09355225 -671.44458008 222.91687012 C-650.86305485 218.57666154 -630.34589352 213.95670202 -609.83823395 209.28235626 C-607.52002929 208.75456016 -605.20144838 208.22844878 -602.88275146 207.70281982 C-581.11767797 202.79369214 -581.11767797 202.79369214 -559.56640625 197.03271484 C-554.48767107 195.5620789 -549.37107251 194.25118855 -544.25 192.9375 C-537.04252953 191.07260928 -529.86605734 189.13809116 -522.71484375 187.06640625 C-487.64835165 177 -487.64835165 177 -480 177 C-480 176.34 -480 175.68 -480 175 C-479.44957031 174.85304688 -478.89914063 174.70609375 -478.33203125 174.5546875 C-458.56163662 169.22127872 -438.94404137 163.36333223 -419.37109375 157.3515625 C-417.79501147 156.8680559 -416.21892087 156.38457641 -414.64282227 155.90112305 C-411.54995984 154.95236495 -408.4581475 154.00028781 -405.36694336 153.04614258 C-397.76948368 150.70925677 -390.15787776 148.46267138 -382.4921875 146.359375 C-376.349671 144.67350867 -370.27374739 142.88942619 -364.25 140.8125 C-362.50143058 140.21967295 -360.75272345 139.62725197 -359.00390625 139.03515625 C-358.06434082 138.71562988 -357.12477539 138.39610352 -356.15673828 138.06689453 C-352.53458845 136.84270313 -348.9065715 135.63658817 -345.27734375 134.43359375 C-343.9261049 133.98527582 -342.57486793 133.53695224 -341.22363281 133.08862305 C-339.22409655 132.42528932 -337.22446997 131.76223692 -335.2244873 131.10025024 C-333.35099095 130.47976992 -331.47821999 129.85710064 -329.60546875 129.234375 C-328.52418701 128.87569336 -327.44290527 128.51701172 -326.32885742 128.14746094 C-323.20698201 127.07134693 -320.12230498 125.92472295 -317.03410339 124.75704956 C-313.76400904 123.53999073 -310.46337999 122.41632115 -307.16015625 121.29296875 C-306.43493271 121.04509109 -305.70970917 120.79721344 -304.96250916 120.54182434 C-302.66288726 119.75592794 -300.36274865 118.97155986 -298.0625 118.1875 C-287.58846818 114.61565314 -277.12983305 111.00652609 -266.69897461 107.31030273 C-263.8274443 106.29310894 -260.95430224 105.2812834 -258.078125 104.27734375 C-250.79463298 101.73066822 -243.56723528 99.08820702 -236.37890625 96.28125 C-232.42248605 94.78101205 -228.43417672 93.38848163 -224.4375 92 C-219.51272792 90.28739116 -214.66903165 88.495772 -209.875 86.4375 C-204.79819893 84.2587353 -199.62415463 82.50693189 -194.37255859 80.81103516 C-190.07143947 79.40556451 -185.99925289 77.7487173 -181.90625 75.83203125 C-179.03326429 74.57804363 -176.01118492 73.86033855 -173 73 C-170.80868311 72.0872939 -168.65485801 71.10997658 -166.49858093 70.11755371 C-164.11653788 69.05212452 -161.71941238 68.06881308 -159.29223633 67.11132812 C-154.38336402 65.16005096 -149.50632368 63.14074119 -144.63671875 61.09375 C-143.77564011 60.73269165 -142.91456146 60.3716333 -142.02738953 59.99963379 C-139.24712559 58.83380473 -136.46729493 57.66694687 -133.6875 56.5 C-122.37346021 51.75248524 -111.0583649 47.01068079 -99.70288086 42.36303711 C-82.09780536 35.15233089 -64.69993946 27.47649932 -47.30389404 19.77793884 C-45.87117442 19.14434724 -44.43743108 18.51306368 -43.00250244 17.88449097 C-41.67976705 17.30024823 -40.36198163 16.70465218 -39.04974365 16.09719849 C-35.70284237 14.57734879 -33.76291327 14 -30 14 C-30 13.34 -30 12.68 -30 12 C-29.25314941 11.67201416 -28.50629883 11.34402832 -27.73681641 11.00610352 C-24.36598132 9.52542444 -20.99548664 8.04397207 -17.625 6.5625 C-16.449375 6.04623047 -15.27375 5.52996094 -14.0625 4.99804688 C-12.38027344 4.25844727 -12.38027344 4.25844727 -10.6640625 3.50390625 C-9.62717285 3.04830322 -8.5902832 2.5927002 -7.52197266 2.12329102 C-2.75483591 0 -2.75483591 0 0 0 Z " fill="#000000" transform="translate(3403,2364)"/>
<path d="M0 0 C1.02716125 -0.00259827 1.02716125 -0.00259827 2.07507324 -0.00524902 C23.51031535 0.01829666 45.23429517 3.88406551 64.25 14.125 C65.47299805 14.77746704 65.47299805 14.77746704 66.72070312 15.44311523 C73.59407732 19.19340343 79.69097273 23.46419438 85.75 28.4375 C86.70390625 29.1903125 87.6578125 29.943125 88.640625 30.71875 C104.77708632 43.5926481 115.68806673 59.57344042 127.14550781 76.49902344 C132.71928753 84.72103206 138.40776386 92.76777705 144.55859375 100.5703125 C148.12661252 105.23862939 151.19018485 110.14079565 154.1875 115.1875 C159.02526171 123.17238259 164.58497018 130.62429619 170.09179688 138.15429688 C172.68278573 141.72186574 175.21702092 145.32862471 177.75 148.9375 C181.88901951 154.82761683 186.08293164 160.67460335 190.3125 166.5 C194.81619193 172.70495374 199.20206132 178.97555151 203.50708008 185.31958008 C207.19562732 190.71782874 211.08478426 195.95224711 215 201.1875 C219.4682671 207.17041372 223.44397272 213.10137075 227.0625 219.6328125 C229.34567295 223.42753051 232.04337962 226.8438522 234.78271484 230.31103516 C238.07020287 234.49275934 241.13363137 238.78968964 244.125 243.1875 C249.40941001 250.95473205 254.80706973 258.63565239 260.23828125 266.30078125 C261.73534073 268.41678005 263.22783187 270.53592052 264.71875 272.65625 C265.20891602 273.35258545 265.69908203 274.0489209 266.20410156 274.76635742 C267.18916543 276.1666202 268.17290086 277.5678185 269.15527344 278.9699707 C271.83369936 282.77849513 274.56172265 286.53970895 277.359375 290.26171875 C278.25474976 291.46453491 278.25474976 291.46453491 279.16821289 292.69165039 C280.31761041 294.23184623 281.4777175 295.76412817 282.65014648 297.28686523 C285.99548061 301.78986172 287.04534976 304.78606273 287.75 310.4375 C289.55335574 311.61578053 289.55335574 311.61578053 291.75 312.4375 C293.8359375 314.7734375 293.8359375 314.7734375 296.125 317.8125 C296.5492627 318.37485352 296.97352539 318.93720703 297.41064453 319.51660156 C303.14127712 327.18874878 308.56191307 335.08795222 314.02148438 342.95361328 C316.62158409 346.68997126 319.24670421 350.40844581 321.875 354.125 C322.36210449 354.81432617 322.84920898 355.50365234 323.35107422 356.21386719 C324.32798895 357.59628756 325.30503902 358.9786123 326.28222656 360.36083984 C328.77320986 363.88517516 331.26144903 367.41144701 333.75 370.9375 C334.74998722 372.35417568 335.74998722 373.77084236 336.75 375.1875 C342.75 383.6875 342.75 383.6875 344.25097656 385.81396484 C345.24761905 387.22582092 346.24436329 388.63760518 347.24121094 390.04931641 C349.79343446 393.66399269 352.34369476 397.28002918 354.890625 400.8984375 C355.92694363 402.36989007 356.96340065 403.84124518 358 405.3125 C358.50748779 406.03284424 359.01497559 406.75318848 359.5378418 407.49536133 C362.17639128 411.23327039 364.84447904 414.94422432 367.5625 418.625 C371.49248682 423.99000276 375.2067249 429.49583099 378.9375 435 C384.20711221 442.77302206 389.58918504 450.44368508 395.11816406 458.03393555 C399.00871312 463.38373941 402.78785663 468.79950659 406.51879883 474.26147461 C417.58395095 490.45384574 428.89042288 506.49536818 440.3269043 522.42773438 C449.85239623 535.70196829 459.13561532 549.15053559 468.375 562.625 C476.8777038 575.0181749 485.47420199 587.34349197 494.3125 599.5 C498.7912433 605.66091 503.15265651 611.89022156 507.4375 618.1875 C517.14028719 632.49128824 517.14028719 632.49128824 527.58737183 646.25250244 C533.27813009 653.33826247 538.42260974 660.67775891 543.384552 668.28656006 C545.52926626 671.57325407 547.69563083 674.84559055 549.86328125 678.1171875 C550.28683395 678.75677399 550.71038666 679.39636047 551.14677429 680.05532837 C555.54103218 686.6674441 560.18007251 693.08762901 564.875 699.48828125 C567.769064 703.43747275 570.55238081 707.45642539 573.3125 711.5 C577.10344673 717.05142272 580.93371017 722.57202636 584.8125 728.0625 C585.31515381 728.77470703 585.81780762 729.48691406 586.33569336 730.22070312 C588.6646354 733.51395797 591.00492617 736.79763211 593.37890625 740.05859375 C598.6276261 747.28245226 603.48234408 754.66395251 608.16015625 762.26953125 C611.3333324 767.41538767 614.65312147 772.46616176 617.99584961 777.50317383 C635.62170682 804.39403115 639.986026 839.01646375 634.1652832 870.32397461 C631.2256183 884.34886663 626.86953176 899.16141465 618.5234375 910.91796875 C616.74319797 913.44716367 615.08613726 916.0409849 613.42333984 918.64819336 C593.97335056 948.77608075 564.49270499 970.00547261 529.21875 977.73046875 C528.0740625 977.96378906 526.929375 978.19710937 525.75 978.4375 C524.43515625 978.77201172 524.43515625 978.77201172 523.09375 979.11328125 C496.04403382 985.40490827 463.90739103 978.14765964 439.75 965.4375 C439.07662598 965.0863916 438.40325195 964.7352832 437.70947266 964.37353516 C411.99095608 950.82832994 395.2790174 929.31731516 378.8828125 905.88671875 C375.74255571 901.40865351 372.5302484 896.98503214 369.3125 892.5625 C364.28732714 885.64304469 359.43102409 878.62240277 354.62744141 871.54785156 C350.89856109 866.07284594 347.07933272 860.67276275 343.1875 855.3125 C342.64577148 854.56621338 342.10404297 853.81992676 341.54589844 853.05102539 C341.00868164 852.31102295 340.47146484 851.57102051 339.91796875 850.80859375 C331.06927806 838.61712407 322.54974515 826.21706278 314.10742188 813.74145508 C309.32989085 806.70293718 304.43555313 799.76833722 299.41992188 792.89819336 C295.05664297 786.9068558 290.86095547 780.81135951 286.69433594 774.68212891 C282.76071671 768.89968504 278.77073962 763.15966371 274.75 757.4375 C270.14653541 750.88170735 265.58056057 744.30246272 261.0625 737.6875 C260.52786133 736.9049585 259.99322266 736.12241699 259.44238281 735.31616211 C257.37974536 732.29514978 255.31842103 729.27325976 253.26123047 726.24853516 C248.76533083 719.6399405 244.27292914 713.05459362 239.4375 706.6875 C229.99887729 694.25409148 221.29425418 681.26490613 212.50268555 668.37060547 C208.0185291 661.80400867 203.44544363 655.30372622 198.84765625 648.81640625 C195.46176129 644.03740761 192.10555258 639.23782986 188.75 634.4375 C176.52658499 616.922754 176.52658499 616.922754 164 599.625 C160.15113839 594.41847119 156.51081269 589.11703237 152.95703125 583.703125 C150.24735924 579.6937696 147.41116647 575.78625763 144.5625 571.875 C137.76172819 562.52740047 131.24321077 553.00015368 124.75 543.4375 C119.04343359 535.04167602 113.26876717 526.72498441 107.22387695 518.56884766 C101.54115879 510.8613443 96.12978138 502.96369416 90.67578125 495.09375 C87.30700951 490.23345477 83.91449909 485.39075741 80.5 480.5625 C80.01909912 479.88243896 79.53819824 479.20237793 79.04272461 478.50170898 C78.08764428 477.15184702 77.13232489 475.80215416 76.17675781 474.45263672 C65.07767955 458.77642317 53.98012679 443.09651146 43.125 427.25 C38.94818866 421.15310452 34.71008599 415.10227038 30.4387207 409.07128906 C27.13541182 404.40592728 23.85347959 399.72627717 20.58300781 395.0378418 C15.51298944 387.77048921 10.39963039 380.54118683 5.1875 373.375 C0.20077611 366.51646209 -4.6143992 359.55576113 -9.37744141 352.54052734 C-13.57800115 346.37272857 -17.91341119 340.31411001 -22.30249023 334.27954102 C-27.57167576 327.0244299 -32.70608529 319.67819768 -37.8359375 312.32421875 C-41.01691112 307.76470348 -44.22418503 303.22425262 -47.4375 298.6875 C-51.235174 293.32336342 -54.98108728 287.92753455 -58.6875 282.5 C-65.37982005 272.71114248 -72.3514354 263.12313354 -79.359375 253.55859375 C-86.14440042 244.29442443 -92.71449611 234.87872806 -99.25 225.4375 C-99.7332373 224.74011719 -100.21647461 224.04273438 -100.71435547 223.32421875 C-113.17729117 205.25228293 -124.62776066 186.10424689 -129.25 164.4375 C-129.39953125 163.76944336 -129.5490625 163.10138672 -129.703125 162.41308594 C-132.60188826 149.12500523 -132.77972314 135.98919972 -132.25 122.4375 C-132.2180957 121.58478516 -132.18619141 120.73207031 -132.15332031 119.85351562 C-131.35336413 102.8288071 -126.44294005 85.86334439 -117.25 71.4375 C-116.43853554 70.11214233 -115.62736321 68.78660577 -114.81640625 67.4609375 C-109.00391605 58.09888315 -102.68300348 49.56802873 -95.25 41.4375 C-94.47398437 40.57898438 -93.69796875 39.72046875 -92.8984375 38.8359375 C-78.53535521 23.70426218 -60.78159579 12.69304025 -41.125 6 C-40.16013672 5.66967773 -39.19527344 5.33935547 -38.20117188 4.99902344 C-25.68977832 0.97057406 -13.0833633 0.02258534 0 0 Z " fill="#FEFEFE" transform="translate(882.25,844.5625)"/>
<path d="M0 0 C0.7935791 0.19867676 1.5871582 0.39735352 2.40478516 0.60205078 C20.36572375 5.24622142 35.37018089 12.65205352 50 24 C51.485 25.14855469 51.485 25.14855469 53 26.3203125 C61.36016513 32.98522192 68.96042668 39.80980423 74.6484375 48.9296875 C75.93072581 50.89388636 77.30899988 52.5715278 78.875 54.3125 C81 57 81 57 81 61 C81.66 61 82.32 61 83 61 C100.54434626 79.77986361 103.67134109 113.09509655 103.08447266 137.61474609 C102.598321 151.34220761 99.13642411 163.98267059 95 177 C94.46439453 178.74410156 94.46439453 178.74410156 93.91796875 180.5234375 C88.08780736 197.51169804 76.48479925 212.6078016 66 227 C64.92506027 228.48645805 63.85085392 229.9734467 62.77734375 231.4609375 C61.13937998 233.72997822 59.50096072 235.9986727 57.86010742 238.265625 C50.29058262 248.72788256 42.84773003 259.27535158 35.5625 269.9375 C31.16347049 276.37313192 26.62928672 282.70137643 22.04711914 289.00756836 C17.96963404 294.62947364 13.97014739 300.30188432 10 306 C5.51358297 312.43692516 0.98114739 318.835669 -3.625 325.1875 C-11.04917115 335.42658098 -18.33890587 345.75719924 -25.58203125 356.125 C-26.80464405 357.87503036 -28.02730029 359.62503037 -29.25 361.375 C-29.85062256 362.23464355 -30.45124512 363.09428711 -31.07006836 363.97998047 C-34.0100727 368.18115318 -36.96693761 372.36518418 -40 376.5 C-48.52638695 388.13021089 -56.68188042 400.03882014 -64.82666016 411.93823242 C-67.27245127 415.50600698 -69.73834388 419.05815355 -72.23046875 422.59375 C-78.70999061 431.78789144 -85.05179748 441.0508166 -91.25 450.4375 C-96.1312288 457.81863055 -101.11083005 464.96921374 -106.6015625 471.91015625 C-111.65455775 478.41979671 -116.29351346 485.23792943 -121 492 C-121.94117676 493.35206543 -121.94117676 493.35206543 -122.90136719 494.73144531 C-125.6233584 498.64339259 -128.34421483 502.55612558 -131.06347656 506.4699707 C-138.16572843 516.68860357 -145.31613956 526.87267568 -152.57202148 536.98291016 C-162.44757392 550.74932791 -172.07737888 564.69217443 -181.625 578.6875 C-190.9531371 592.35494189 -200.44522591 605.89756293 -210.17578125 619.28149414 C-214.6098057 625.40451061 -218.87570413 631.63332396 -223.12084961 637.88818359 C-226.86589091 643.38873063 -230.71022136 648.80663589 -234.625 654.1875 C-239.10279894 660.34289311 -243.48422151 666.55084483 -247.77709961 672.83642578 C-251.37678312 678.10478979 -255.02326267 683.3388493 -258.6875 688.5625 C-263.89495738 695.98625008 -269.07837243 703.42624891 -274.25 710.875 C-278.95009762 717.64247152 -283.67907184 724.38521137 -288.48974609 731.07446289 C-291.98500282 735.9474174 -295.37479141 740.89001214 -298.76171875 745.83862305 C-302.07334244 750.67019414 -305.42871581 755.46872354 -308.8125 760.25 C-317.83592916 773.00340738 -326.82431339 785.77903381 -335.625 798.6875 C-343.75736768 810.60982786 -352.08973937 822.37998188 -360.5625 834.0625 C-366.01424308 841.5844233 -371.32076682 849.19423 -376.54931641 856.87255859 C-378.12614666 859.18499529 -379.70905703 861.49318969 -381.29296875 863.80078125 C-388.17531384 873.82855821 -388.17531384 873.82855821 -394.9375 883.9375 C-400.27872457 891.98902748 -405.85752244 899.87770139 -411.42871094 907.77099609 C-412.71063888 909.58951724 -413.98529378 911.41316357 -415.2578125 913.23828125 C-436.15476076 942.74757012 -466.11226234 967.21027073 -502.5625 973.9375 C-540.33303119 980.18432389 -576.28256058 975.01134214 -608.109375 953.18359375 C-612.15090337 950.13060138 -615.85219281 946.77801345 -619.52734375 943.296875 C-621.96955363 940.97040819 -621.96955363 940.97040819 -624.62109375 938.91015625 C-644.1961073 923.19228823 -655.32364868 897.2714463 -662.31079102 874.03100586 C-662.82297953 872.02956126 -662.82297953 872.02956126 -664 871 C-670.03149949 844.40857159 -668.0579301 809.50106702 -654 785.4609375 C-651.95423562 782.09305554 -651.95423562 782.09305554 -650.61035156 778.65991211 C-649.07045969 775.16013662 -647.33548988 772.16771359 -645.234375 768.98046875 C-644.87788879 768.43699295 -644.52140259 767.89351715 -644.15411377 767.33357239 C-643.02456983 765.61475006 -641.88729418 763.90120107 -640.75 762.1875 C-640.0034293 761.05174566 -639.25733227 759.91567982 -638.51171875 758.77929688 C-632.7813256 750.06763141 -627.00607622 741.40616801 -620.5 733.25 C-614.56701636 725.67039167 -609.25826127 717.66757446 -603.8671875 709.69921875 C-595.91094028 697.94413241 -587.72998106 686.34950728 -579.375 674.875 C-574.45503158 668.11740808 -569.76799561 661.23190882 -565.1652832 654.25512695 C-561.96072994 649.40704929 -558.6321045 644.6845533 -555.17578125 640.01171875 C-552.29038448 636.01774943 -549.52242978 631.94789107 -546.75 627.875 C-541.07973936 619.54992955 -535.30906838 611.30243237 -529.47949219 603.08837891 C-527.99499848 600.9929401 -526.5161166 598.89365709 -525.0390625 596.79296875 C-519.88849788 589.47067296 -514.69588549 582.18281787 -509.4375 574.9375 C-504.9122954 568.70038114 -500.49781607 562.40036378 -496.15942383 556.03222656 C-492.73291438 551.02059371 -489.19777094 546.09567252 -485.625 541.1875 C-481.09826977 534.9674473 -476.69418524 528.67835798 -472.375 522.3125 C-468.04869752 515.93669244 -463.61032382 509.67168541 -459.01855469 503.48486328 C-455.78819843 499.1172061 -452.68295618 494.67727329 -449.625 490.1875 C-445.69110966 484.41393949 -441.6655533 478.71710766 -437.5625 473.0625 C-427.56591606 459.2743106 -417.83954733 445.33013994 -408.28491211 431.23144531 C-403.25555316 423.81952122 -398.14860909 416.47075826 -392.95703125 409.171875 C-390.81079385 406.1533428 -388.68718396 403.12004091 -386.57421875 400.078125 C-380.56973438 391.43828883 -374.48319877 382.89672028 -368.11938477 374.51757812 C-364.55783664 369.80638982 -361.26179359 364.96464614 -358.03125 360.01953125 C-355.76123246 356.64506287 -353.3653709 353.38653478 -350.9375 350.125 C-346.28468017 343.86440812 -341.87016342 337.46052889 -337.5 331 C-332.83408954 324.10632768 -328.09611907 317.29735654 -323.13061523 310.61669922 C-317.49297667 303.01195973 -312.12506044 295.21712793 -306.71240234 287.45166016 C-304.11266786 283.72959946 -301.49533588 280.02007456 -298.875 276.3125 C-298.38781494 275.6230127 -297.90062988 274.93352539 -297.39868164 274.22314453 C-296.42182597 272.84090269 -295.44485714 271.45874081 -294.46777344 270.07666016 C-291.97679016 266.55232487 -289.48851935 263.02607528 -287 259.5 C-284.02473548 255.28423746 -281.04900208 251.06881222 -278.0703125 246.85546875 C-275.04324364 242.57286859 -272.02022335 238.28743037 -269 234 C-268.45617676 233.22817383 -267.91235352 232.45634766 -267.35205078 231.66113281 C-260.53126689 221.97227327 -253.78207293 212.23966637 -247.125 202.4375 C-242.88193984 196.19101005 -238.60596728 189.99034277 -234.12109375 183.9140625 C-231.19585135 179.8952212 -228.348362 175.82356501 -225.5 171.75 C-224.90509766 170.89921875 -224.31019531 170.0484375 -223.69726562 169.171875 C-220.45501481 164.5293279 -217.22196304 159.88050623 -213.99609375 155.2265625 C-207.32697002 145.60900944 -200.61648786 136.03349003 -193.72680664 126.57250977 C-189.27091047 120.43071087 -184.99480732 114.17509646 -180.73583984 107.89575195 C-177.4020418 102.99788144 -173.97643031 98.18886528 -170.4375 93.4375 C-166.48815677 88.1311956 -162.76372564 82.71110568 -159.125 77.1875 C-150.06656568 63.49031218 -140.91152398 50.16505851 -129.38037109 38.41552734 C-128.07255407 37.07440193 -126.7950221 35.70393716 -125.51953125 34.33203125 C-114.02917922 22.24185661 -97.57706166 10.22657726 -81.32421875 5.67578125 C-78.20994971 4.7702879 -75.22046421 3.58519747 -72.1875 2.4375 C-65.81539992 0.15832779 -59.71106207 -1.21795212 -53 -2 C-52.15179687 -2.11085938 -51.30359375 -2.22171875 -50.4296875 -2.3359375 C-33.70769342 -4.13976777 -16.35861895 -4.11833135 0 0 Z " fill="#FEFEFE" transform="translate(3244,848)"/>
<path d="M0 0 C0.68552948 0.00021149 1.37105896 0.00042297 2.07736206 0.00064087 C13.48065888 0.03570237 24.17636804 1.05218576 35.125 4.375 C36.34445313 4.73722656 37.56390625 5.09945312 38.8203125 5.47265625 C47.38719032 8.29953428 55.35101346 12.24753034 63.31640625 16.43457031 C64.90597617 17.26111234 66.51422424 18.05152326 68.125 18.8359375 C95.44770592 32.57671693 116.87186248 61.89770265 127.1875 90 C129.13317446 96.04600322 130.81528783 102.15954513 132.125 108.375 C132.28816839 109.10401112 132.45133677 109.83302225 132.61944965 110.58412462 C134.22315694 118.3781289 134.40792752 125.95826943 134.38226891 133.89054203 C134.38496652 135.34070919 134.38853673 136.79087493 134.39289337 138.24103805 C134.4023119 142.21634556 134.39936359 146.19156095 134.39433783 150.16687286 C134.39106244 154.49553902 134.39936102 158.82418586 134.40615618 163.1528458 C134.41645213 170.73644035 134.41930068 178.32000938 134.41724396 185.90361023 C134.41419292 197.18107259 134.42252026 208.45850672 134.43299321 219.73596359 C134.45233433 241.05063232 134.45796148 262.36529142 134.45910732 283.67996789 C134.46002647 300.14122494 134.46414348 316.60247823 134.47050858 333.06373405 C134.47230367 337.80241853 134.4740833 342.541103 134.47585833 347.27978748 C134.47652148 349.04687824 134.47652148 349.04687824 134.47719802 350.8496678 C134.48950641 383.98642298 134.49739915 417.12317686 134.49651146 450.25993443 C134.49646472 452.13391393 134.49646472 452.13391393 134.49641704 454.04575161 C134.49625083 460.37778989 134.49605275 466.70982816 134.49584763 473.04186643 C134.49580774 474.2994261 134.49576785 475.55698576 134.49572675 476.8526533 C134.49564587 479.39574587 134.49556228 481.93883843 134.49547596 484.481931 C134.49425056 524.04501622 134.50926177 563.60806716 134.53662109 603.17114258 C134.56734859 647.6230657 134.58455318 692.0749663 134.58269465 736.52690071 C134.58254539 741.26778567 134.58244798 746.00867063 134.58238602 750.74955559 C134.58236271 751.91687578 134.5823394 753.08419596 134.58231538 754.28688949 C134.58225386 773.06444235 134.59502051 791.84196541 134.61225055 810.61950941 C134.6292122 829.49510757 134.63117669 848.37066219 134.6180319 867.24626375 C134.61064627 878.45593275 134.61428921 889.66546941 134.63391658 900.87512436 C134.64592896 908.36976054 134.6433115 915.86430102 134.62897559 923.35893283 C134.62122325 927.62464236 134.61962984 931.89009607 134.63589029 936.15578742 C134.75005739 968.16739658 134.75005739 968.16739658 130.125 983.375 C129.81408712 984.55398237 129.50317424 985.73296475 129.18283975 986.94767386 C126.77748888 996.03600523 122.54062643 1004.13521226 118.125 1012.375 C117.75681152 1013.07125488 117.38862305 1013.76750977 117.00927734 1014.48486328 C112.42035621 1023.12177574 107.62351067 1031.00757359 101.125 1038.375 C100.02091797 1039.69371094 100.02091797 1039.69371094 98.89453125 1041.0390625 C85.4452404 1056.61654456 68.38428841 1067.21236307 49.29125977 1074.52832031 C47.77537551 1075.12080161 46.26856239 1075.73678254 44.76928711 1076.37011719 C17.32909885 1087.86968853 -10.76786326 1086.13621523 -38.875 1078.375 C-39.9902002 1078.07118408 -39.9902002 1078.07118408 -41.12792969 1077.76123047 C-72.47351883 1068.87230136 -100.28049959 1043.83290046 -116.04492188 1015.9309082 C-117.75417905 1012.79248566 -119.33269154 1009.59820587 -120.875 1006.375 C-121.18034668 1005.74319824 -121.48569336 1005.11139648 -121.80029297 1004.46044922 C-132.85083223 981.10268897 -134.77472485 957.30963893 -134.6334026 931.88773557 C-134.61614154 927.55881211 -134.63424298 923.22999715 -134.64753091 918.9010793 C-134.66599843 911.33880065 -134.66251227 903.77678888 -134.64406586 896.21451378 C-134.61671157 884.96920587 -134.62404745 873.72410044 -134.63798306 862.47877738 C-134.66176526 842.3905943 -134.65171964 822.30253725 -134.62742651 802.2143612 C-134.60631972 784.64068103 -134.59727994 767.06704372 -134.60001755 749.49335098 C-134.60018561 748.32578332 -134.60035367 747.15821565 -134.60052682 745.95526714 C-134.60123136 741.21534815 -134.60199939 736.47542918 -134.60285798 731.73551021 C-134.6107789 687.32021106 -134.58539299 642.90498766 -134.54380485 598.48971018 C-134.50704479 559.04520436 -134.49544724 519.6007711 -134.50634766 480.15625 C-134.50704052 477.62194482 -134.50773272 475.08763964 -134.50842424 472.55333446 C-134.50876623 471.30040779 -134.50910822 470.04748111 -134.50946057 468.75658697 C-134.51116771 462.44926577 -134.51281527 456.14194456 -134.51439857 449.83462334 C-134.51471274 448.59022873 -134.5150269 447.34583412 -134.51535058 446.06373058 C-134.52333141 413.07662204 -134.51237909 380.08952047 -134.49537599 347.10241616 C-134.49356196 343.55303094 -134.49175066 340.00364572 -134.48994553 336.4542605 C-134.48874331 334.09982401 -134.48752608 331.74538753 -134.48629371 329.39095106 C-134.47785552 312.98653248 -134.4766925 296.58212763 -134.4805047 280.17770759 C-134.48539165 259.04384624 -134.47723745 237.9100584 -134.44608469 216.77621715 C-134.42999458 205.60362641 -134.42477353 194.43115807 -134.43536941 183.25856005 C-134.44132957 175.79294639 -134.43270005 168.32744078 -134.41227225 160.86185294 C-134.40103615 156.61052123 -134.39598221 152.35943883 -134.40860541 148.10810529 C-134.41997206 144.23317991 -134.41264237 140.35873667 -134.39100786 136.48385912 C-134.38428763 134.44941702 -134.39693205 132.41493826 -134.41059655 130.38053095 C-134.34179644 122.28557293 -133.11213192 115.33378366 -130.82365992 107.63035912 C-130.00772209 104.8304404 -129.40457575 102.12404806 -128.9375 99.25 C-124.55887921 76.49614154 -110.08444763 54.45628944 -93.875 38.375 C-93.1339502 37.63805908 -93.1339502 37.63805908 -92.37792969 36.88623047 C-68.43203782 13.375 -68.43203782 13.375 -54.875 13.375 C-54.875 12.715 -54.875 12.055 -54.875 11.375 C-34.33942685 3.82466877 -34.33942685 3.82466877 -26.45703125 2.76171875 C-23.99252434 2.44151 -23.99252434 2.44151 -22.09863281 1.90234375 C-14.78951322 -0.00586463 -7.51554474 -0.02133078 0 0 Z " fill="#FDFEFE" transform="translate(2047.875,511.625)"/>
<path d="M0 0 C0.66 0.33 1.32 0.66 2 1 C-1.11692909 4.17469938 -4.24483546 7.33835392 -7.375 10.5 C-8.26445313 11.40621094 -9.15390625 12.31242188 -10.0703125 13.24609375 C-10.92109375 14.10332031 -11.771875 14.96054687 -12.6484375 15.84375 C-13.43395996 16.63974609 -14.21948242 17.43574219 -15.02880859 18.25585938 C-17 20 -17 20 -19 20 C-19 20.66 -19 21.32 -19 22 C-19.66 21.67 -20.32 21.34 -21 21 C-14.48247152 13.37310498 -7.69585469 6.43938862 0 0 Z " fill="#C7C8C7" transform="translate(1966,539)"/>
<path d="M0 0 C0.66 0.33 1.32 0.66 2 1 C-4.27 7.27 -10.54 13.54 -17 20 C-17.66 19.67 -18.32 19.34 -19 19 C-12.98348207 12.26459665 -7.02537494 5.71692402 0 0 Z " fill="#C7C7C7" transform="translate(414,2011)"/>
<path d="M0 0 C0.66 0.99 1.32 1.98 2 3 C0.71034824 4.37562854 -0.62689293 5.70766393 -2 7 C-2.66 7 -3.32 7 -4 7 C-2.79618552 4.50638429 -1.54571278 2.31856917 0 0 Z " fill="#353638" transform="translate(3312,1071)"/>
</svg>
